<svg width="183" height="183" viewBox="0 0 183 183" fill="none" xmlns="http://www.w3.org/2000/svg">
<g filter="url(#filter0_d_28_4392)">
<rect x="16.5" y="8.77002" width="150" height="150" rx="75" fill="#F5F7FA" shape-rendering="crispEdges"/>
<g clip-path="url(#clip0_28_4392)">
<g clip-path="url(#clip1_28_4392)">
<g clip-path="url(#clip2_28_4392)">
<path fill-rule="evenodd" clip-rule="evenodd" d="M99.7017 49.7388C99.4986 49.1138 98.9361 48.6763 98.2798 48.645L94.3736 48.4575L92.9829 44.8013C92.8579 44.4888 92.6704 44.2388 92.4048 44.0513C92.1548 43.8794 91.8423 43.77 91.4986 43.77C90.8423 43.77 90.2486 44.1763 90.0142 44.7856L88.6236 48.4575L84.7173 48.645C84.0611 48.6763 83.4986 49.1138 83.2954 49.7388C83.0767 50.3638 83.2798 51.0513 83.7954 51.4575L86.8423 53.9106L85.8111 57.6919C85.6392 58.3325 85.8736 59.0044 86.4048 59.395C86.6861 59.5981 87.0142 59.7075 87.3423 59.7075C87.6392 59.7075 87.9517 59.6138 88.2173 59.4419L91.4986 57.3013L94.7798 59.4419C95.3423 59.8013 96.0454 59.7856 96.5767 59.395C97.1079 59.0044 97.3423 58.3325 97.1704 57.6919L96.1392 53.9106L99.1861 51.4575C99.7017 51.0356 99.9048 50.3638 99.7017 49.7388ZM94.1236 52.3481C93.6392 52.7388 93.4204 53.395 93.5923 54.0044L94.1392 56.0356L92.3736 54.8638C92.1079 54.6919 91.8111 54.5981 91.4986 54.5981C91.2017 54.5981 90.8892 54.6919 90.6236 54.8638L88.8579 56.02L89.4048 53.9888C89.5767 53.3794 89.3579 52.7388 88.8736 52.3325L87.2329 51.02L89.3423 50.9263C89.9673 50.895 90.5298 50.4888 90.7486 49.9106L91.4986 47.9419L92.2486 49.9106C92.4673 50.5044 93.0298 50.895 93.6548 50.9263L95.7642 51.0356L94.1236 52.3481ZM117.327 53.1294C117.124 52.5044 116.561 52.0669 115.905 52.0356L111.999 51.8481L110.608 48.1919C110.483 47.8794 110.295 47.6294 110.03 47.4419C109.78 47.27 109.467 47.1606 109.124 47.1606C108.467 47.1606 107.874 47.5669 107.639 48.1763L106.249 51.8325L102.342 52.02C101.686 52.0513 101.124 52.4888 100.92 53.1138C100.702 53.7388 100.905 54.4106 101.42 54.8325L104.467 57.3013L103.436 61.0825C103.264 61.7231 103.499 62.395 104.03 62.7856C104.311 62.9888 104.639 63.0981 104.967 63.0981C105.264 63.0981 105.577 63.0044 105.842 62.8325L109.124 60.6919L112.405 62.8325C112.967 63.1919 113.67 63.1763 114.202 62.7856C114.733 62.395 114.967 61.7231 114.795 61.0825L113.764 57.3013L116.811 54.8481C117.327 54.4263 117.53 53.7544 117.327 53.1294ZM111.749 55.7231C111.264 56.1138 111.045 56.77 111.217 57.3794L111.764 59.4106L109.999 58.2544C109.733 58.0825 109.436 57.9888 109.124 57.9888C108.827 57.9888 108.514 58.0825 108.249 58.2544L106.483 59.4106L107.03 57.3794C107.202 56.77 106.983 56.1294 106.499 55.7231L104.858 54.4106L106.967 54.3013C107.592 54.27 108.155 53.8638 108.374 53.2856L109.124 51.3169L109.874 53.2856C110.092 53.8794 110.655 54.27 111.28 54.3013L113.389 54.4106L111.749 55.7231ZM82.0923 53.1294C81.8892 52.5044 81.3267 52.0669 80.6704 52.0356L76.7642 51.8481L75.3736 48.1919C75.2486 47.8794 75.0611 47.6294 74.7954 47.4419C74.5454 47.27 74.2329 47.1606 73.8892 47.1606C73.2173 47.1606 72.6392 47.5669 72.4048 48.1763L71.0142 51.8325L67.1079 52.02C66.4517 52.0513 65.8892 52.4888 65.6704 53.1138C65.4673 53.7388 65.6548 54.4106 66.1861 54.8325L69.2329 57.2856L68.2017 61.0669C68.0298 61.7075 68.2642 62.3794 68.7954 62.77C69.0767 62.9731 69.4048 63.0825 69.7329 63.0825C70.0298 63.0825 70.3423 62.9888 70.6079 62.8169L73.8892 60.6763L77.1704 62.8169C77.7329 63.1763 78.4361 63.1606 78.9673 62.77C79.4986 62.3794 79.7329 61.7075 79.5611 61.0669L78.5298 57.3013L81.5767 54.8481C82.0923 54.4263 82.2954 53.7544 82.0923 53.1294ZM76.5142 55.7231C76.0298 56.1138 75.8111 56.77 75.9829 57.3794L76.5298 59.4106L74.7642 58.2544C74.4986 58.0825 74.2017 57.9888 73.8892 57.9888C73.5923 57.9888 73.2798 58.0825 73.0142 58.2544L71.2486 59.4106L71.7954 57.3794C71.9673 56.77 71.7486 56.1294 71.2642 55.7231L69.6236 54.4106L71.7329 54.3013C72.3579 54.27 72.9204 53.8638 73.1392 53.2856L73.8892 51.3169L74.6392 53.2856C74.8579 53.8794 75.4204 54.27 76.0454 54.3013L78.1548 54.4106L76.5142 55.7231ZM117.295 80.0356C116.467 77.3481 114.545 75.27 112.124 74.1763C113.061 73.2075 113.639 71.8794 113.639 70.4263C113.639 67.4419 111.202 65.0044 108.217 65.0044C105.233 65.0044 102.749 67.4263 102.749 70.4263C102.749 71.8794 103.327 73.2075 104.264 74.1763C103.092 74.7075 102.03 75.4731 101.155 76.4263C99.8111 74.7075 98.0142 73.3794 95.9517 72.5825C97.4048 71.3325 98.3111 69.4731 98.3111 67.4263C98.3111 63.6606 95.2486 60.5981 91.4829 60.5981C87.7173 60.5981 84.6548 63.6606 84.6548 67.4263C84.6548 69.4888 85.5767 71.3325 87.0142 72.5825C84.9517 73.3794 83.1704 74.7231 81.8111 76.4263C80.9517 75.4731 79.9048 74.7075 78.7329 74.1763C79.6704 73.2075 80.2486 71.8794 80.2486 70.4263C80.2486 67.4419 77.8111 65.0044 74.8267 65.0044C71.8423 65.0044 69.4048 67.4419 69.4048 70.4263C69.4048 71.8794 69.9829 73.2075 70.9204 74.1763C68.4829 75.27 66.5767 77.3638 65.7486 80.0356C65.4517 81.0044 65.6236 82.02 66.2173 82.8325C66.8111 83.645 67.7329 84.1138 68.7486 84.1138H79.2954V85.0981C79.2954 87.4106 81.1861 89.3013 83.4986 89.3013H99.5454C101.858 89.3013 103.749 87.4106 103.749 85.0981V84.1138H114.295C115.311 84.1138 116.233 83.645 116.827 82.8325C117.42 82.02 117.592 81.0044 117.295 80.0356ZM74.8111 67.5044C76.4204 67.5044 77.7329 68.8169 77.7329 70.4263C77.7329 72.0356 76.4204 73.3481 74.8111 73.3481C73.2017 73.3481 71.8892 72.0356 71.8892 70.4263C71.8892 68.8169 73.2017 67.5044 74.8111 67.5044ZM79.4673 81.6138H68.7486C68.4517 81.6138 68.2798 81.4419 68.2173 81.3481C68.1392 81.2544 68.0454 81.0513 68.1236 80.7856C69.0298 77.8325 71.7329 75.8481 74.8267 75.8481C77.0767 75.8481 79.1236 76.895 80.4517 78.6763C80.0142 79.5981 79.6704 80.5825 79.4673 81.6138ZM91.4986 63.0981C93.8892 63.0981 95.8267 65.0356 95.8267 67.4263C95.8267 69.8169 93.8892 71.7544 91.4986 71.7544C89.1079 71.7544 87.1704 69.8169 87.1704 67.4263C87.1704 65.0356 89.1079 63.0981 91.4986 63.0981ZM101.217 85.0825C101.217 86.02 100.452 86.7856 99.5142 86.7856H83.4673C82.5298 86.7856 81.7642 86.02 81.7642 85.0825V82.9263C82.3423 77.9888 86.4986 74.2544 91.4986 74.2544C96.4986 74.2544 100.655 77.9731 101.217 82.9263V85.0825ZM108.17 67.5044C109.78 67.5044 111.092 68.8169 111.092 70.4263C111.092 72.0356 109.78 73.3481 108.17 73.3481C106.561 73.3481 105.249 72.0356 105.249 70.4263C105.249 68.8169 106.561 67.5044 108.17 67.5044ZM114.795 81.3481C114.717 81.4419 114.561 81.5981 114.28 81.5981H103.561C103.358 80.5669 103.014 79.5825 102.577 78.6606C103.874 76.895 105.936 75.8481 108.186 75.8481C111.28 75.8481 113.967 77.8325 114.889 80.7856C114.967 81.0513 114.874 81.2544 114.795 81.3481ZM61.9361 101.958C61.8267 101.223 61.1236 100.708 60.3892 100.801C59.6392 100.911 59.1236 101.598 59.2329 102.348C59.3423 103.098 60.0298 103.614 60.7798 103.504C61.5298 103.395 62.0454 102.708 61.9361 101.958ZM61.9361 101.958C61.8267 101.223 61.1236 100.708 60.3892 100.801C59.6392 100.911 59.1236 101.598 59.2329 102.348C59.3423 103.098 60.0298 103.614 60.7798 103.504C61.5298 103.395 62.0454 102.708 61.9361 101.958ZM61.9361 101.958C61.8267 101.223 61.1236 100.708 60.3892 100.801C59.6392 100.911 59.1236 101.598 59.2329 102.348C59.3423 103.098 60.0298 103.614 60.7798 103.504C61.5298 103.395 62.0454 102.708 61.9361 101.958ZM61.9361 101.958C61.8267 101.223 61.1236 100.708 60.3892 100.801C59.6392 100.911 59.1236 101.598 59.2329 102.348C59.3423 103.098 60.0298 103.614 60.7798 103.504C61.5298 103.395 62.0454 102.708 61.9361 101.958ZM128.217 94.645C127.499 93.4419 124.561 89.895 116.827 94.4106L103.233 102.317C102.592 102.692 101.936 102.958 101.249 103.129C101.499 102.723 101.686 102.254 101.827 101.754C102.53 99.145 100.967 96.4106 98.2954 95.5356C98.2486 95.52 98.1861 95.5044 98.1392 95.4888C94.2329 94.7856 90.3892 93.395 87.2954 92.27C86.2173 91.8794 85.2017 91.52 84.3423 91.2388C80.8423 90.0981 77.6861 91.5044 75.0611 93.02L64.9829 98.8481L63.9048 96.9419C63.4829 96.1919 62.7798 95.645 61.9361 95.4106C61.0923 95.1763 60.2173 95.2856 59.4673 95.7075L55.6548 97.8638C54.0923 98.7388 53.5454 100.739 54.4204 102.301L65.6236 122.098C66.2173 123.161 67.3267 123.754 68.4517 123.754C68.9986 123.754 69.5454 123.614 70.0454 123.333L73.8579 121.176C74.6079 120.754 75.1548 120.051 75.3892 119.208C75.6236 118.364 75.5142 117.489 75.0923 116.739L74.1079 115.004L76.3579 113.708L93.7486 118.364C94.7329 118.629 95.7017 118.754 96.6548 118.754C98.5454 118.754 100.358 118.223 102.045 117.176L126.702 101.989C128.983 100.629 129.702 97.1138 128.217 94.645ZM72.9986 118.567C72.9517 118.754 72.8267 118.926 72.6548 119.02L68.8423 121.176C68.6704 121.27 68.4673 121.301 68.2798 121.239C68.0923 121.192 67.9204 121.067 67.8267 120.895L56.5923 101.083C56.4986 100.911 56.4673 100.708 56.5298 100.52C56.5767 100.333 56.7017 100.161 56.8736 100.067L60.6861 97.9106C60.7954 97.8481 60.9204 97.8169 61.0454 97.8169C61.1079 97.8169 61.1861 97.8325 61.2486 97.8481C61.4361 97.895 61.6079 98.02 61.7017 98.1919L71.3423 115.192L72.9361 117.989C73.0142 118.161 73.0454 118.364 72.9986 118.567ZM125.405 99.895L100.749 115.083C98.8111 116.286 96.6705 116.583 94.4048 115.973L76.5142 111.176C76.2017 111.098 75.8579 111.129 75.5611 111.301L72.8736 112.848L66.1861 101.051L76.2798 95.2075C78.5298 93.895 80.9829 92.8013 83.5298 93.6294C84.3579 93.895 85.3111 94.2388 86.4048 94.645C89.5611 95.7856 93.4986 97.2075 97.5611 97.9575C98.9517 98.4419 99.7329 99.8013 99.3736 101.129C98.9048 102.879 97.4517 103.098 96.2798 102.958C94.2798 102.551 92.3736 102.004 90.3736 101.426C89.4204 101.161 88.4361 100.879 87.4204 100.598C86.7486 100.426 86.0611 100.817 85.8892 101.489C85.7173 102.161 86.1079 102.848 86.7798 103.02C87.7798 103.286 88.7486 103.567 89.7017 103.833C91.7798 104.426 93.7329 104.989 95.8423 105.411C95.8579 105.411 95.8579 105.411 95.8736 105.411C95.8892 105.411 95.8892 105.411 95.9048 105.411L97.5923 105.692C100.124 106.098 102.389 105.708 104.483 104.489L118.077 96.5825C121.967 94.3169 124.952 94.0825 126.077 95.9419C126.842 97.2231 126.514 99.2231 125.405 99.895ZM60.3892 100.801C59.6392 100.911 59.1236 101.598 59.2329 102.348C59.3423 103.098 60.0298 103.614 60.7798 103.504C61.5298 103.395 62.0454 102.708 61.9361 101.958C61.8267 101.223 61.1236 100.708 60.3892 100.801ZM61.9361 101.958C61.8267 101.223 61.1236 100.708 60.3892 100.801C59.6392 100.911 59.1236 101.598 59.2329 102.348C59.3423 103.098 60.0298 103.614 60.7798 103.504C61.5298 103.395 62.0454 102.708 61.9361 101.958ZM61.9361 101.958C61.8267 101.223 61.1236 100.708 60.3892 100.801C59.6392 100.911 59.1236 101.598 59.2329 102.348C59.3423 103.098 60.0298 103.614 60.7798 103.504C61.5298 103.395 62.0454 102.708 61.9361 101.958ZM61.9361 101.958C61.8267 101.223 61.1236 100.708 60.3892 100.801C59.6392 100.911 59.1236 101.598 59.2329 102.348C59.3423 103.098 60.0298 103.614 60.7798 103.504C61.5298 103.395 62.0454 102.708 61.9361 101.958ZM61.9361 101.958C61.8267 101.223 61.1236 100.708 60.3892 100.801C59.6392 100.911 59.1236 101.598 59.2329 102.348C59.3423 103.098 60.0298 103.614 60.7798 103.504C61.5298 103.395 62.0454 102.708 61.9361 101.958Z" fill="black"/>
<path fill-rule="evenodd" clip-rule="evenodd" d="M72.9388 117.989L71.345 115.192L61.7044 98.1919C61.6106 98.02 61.4388 97.895 61.2513 97.8481C61.1888 97.8325 61.1106 97.8169 61.0481 97.8169C60.9231 97.8169 60.7981 97.8481 60.6888 97.9106L56.8763 100.067C56.7044 100.161 56.5794 100.333 56.5325 100.52C56.47 100.708 56.5013 100.911 56.595 101.083L67.8294 120.895C67.9231 121.067 68.095 121.192 68.2825 121.239C68.47 121.301 68.6731 121.27 68.845 121.176L72.6575 119.02C72.8294 118.926 72.9544 118.754 73.0013 118.567C73.0481 118.364 73.0169 118.161 72.9388 117.989ZM60.7825 103.504C60.0325 103.614 59.345 103.098 59.2356 102.348C59.1263 101.598 59.6419 100.911 60.3919 100.801C61.1263 100.708 61.8294 101.223 61.9388 101.958C62.0481 102.708 61.5325 103.395 60.7825 103.504Z" fill="#F58322"/>
<path fill-rule="evenodd" clip-rule="evenodd" d="M111.219 57.3794L111.766 59.4106L110 58.2544C109.734 58.0825 109.437 57.9888 109.125 57.9888C108.828 57.9888 108.516 58.0825 108.25 58.2544L106.484 59.4106L107.031 57.3794C107.203 56.77 106.984 56.1294 106.5 55.7231L104.859 54.4106L106.969 54.3013C107.594 54.27 108.156 53.8638 108.375 53.2856L109.125 51.3169L109.875 53.2856C110.094 53.8794 110.656 54.27 111.281 54.3013L113.391 54.4106L111.75 55.7231C111.266 56.1138 111.047 56.77 111.219 57.3794Z" fill="#F58322"/>
<path fill-rule="evenodd" clip-rule="evenodd" d="M93.5937 54.0044L94.1406 56.0356L92.375 54.8638C92.1094 54.6919 91.8125 54.5981 91.5 54.5981C91.2031 54.5981 90.8906 54.6919 90.625 54.8638L88.8594 56.02L89.4063 53.9888C89.5781 53.3794 89.3594 52.7388 88.875 52.3325L87.2344 51.02L89.3437 50.9263C89.9687 50.895 90.5312 50.4888 90.75 49.9106L91.5 47.9419L92.25 49.9106C92.4687 50.5044 93.0312 50.895 93.6562 50.9263L95.7656 51.0356L94.125 52.3481C93.6406 52.7388 93.4219 53.395 93.5937 54.0044Z" fill="#F58322"/>
<path fill-rule="evenodd" clip-rule="evenodd" d="M75.9844 57.3794L76.5312 59.4106L74.7656 58.2544C74.5 58.0825 74.2031 57.9888 73.8906 57.9888C73.5938 57.9888 73.2812 58.0825 73.0156 58.2544L71.25 59.4106L71.7969 57.3794C71.9687 56.77 71.75 56.1294 71.2656 55.7231L69.625 54.4106L71.7344 54.3013C72.3594 54.27 72.9219 53.8638 73.1406 53.2856L73.8906 51.3169L74.6406 53.2856C74.8594 53.8794 75.4219 54.27 76.0469 54.3013L78.1563 54.4106L76.5156 55.7231C76.0313 56.1138 75.8125 56.77 75.9844 57.3794Z" fill="#F58322"/>
</g>
</g>
</g>
</g>
<defs>
<filter id="filter0_d_28_4392" x="0.5" y="0.77002" width="182" height="182" filterUnits="userSpaceOnUse" color-interpolation-filters="sRGB">
<feFlood flood-opacity="0" result="BackgroundImageFix"/>
<feColorMatrix in="SourceAlpha" type="matrix" values="0 0 0 0 0 0 0 0 0 0 0 0 0 0 0 0 0 0 127 0" result="hardAlpha"/>
<feOffset dy="8"/>
<feGaussianBlur stdDeviation="8"/>
<feComposite in2="hardAlpha" operator="out"/>
<feColorMatrix type="matrix" values="0 0 0 0 0 0 0 0 0 0 0 0 0 0 0 0 0 0 0.15 0"/>
<feBlend mode="normal" in2="BackgroundImageFix" result="effect1_dropShadow_28_4392"/>
<feBlend mode="normal" in="SourceGraphic" in2="effect1_dropShadow_28_4392" result="shape"/>
</filter>
<clipPath id="clip0_28_4392">
<rect width="80" height="80" fill="white" transform="translate(51.5 43.77)"/>
</clipPath>
<clipPath id="clip1_28_4392">
<rect width="80" height="80" fill="white" transform="translate(51.5 43.77)"/>
</clipPath>
<clipPath id="clip2_28_4392">
<rect width="80" height="80" fill="white" transform="translate(51.5 43.77)"/>
</clipPath>
</defs>
</svg>
