<svg width="183" height="183" viewBox="0 0 183 183" fill="none" xmlns="http://www.w3.org/2000/svg">
<g filter="url(#filter0_d_28_4425)">
<rect x="16.75" y="8.77002" width="150" height="150" rx="75" fill="#F5F7FA" shape-rendering="crispEdges"/>
<g clip-path="url(#clip0_28_4425)">
<g clip-path="url(#clip1_28_4425)">
<g clip-path="url(#clip2_28_4425)">
<path d="M68.4688 73.453C68.4688 86.3689 78.9893 96.8894 91.9051 96.8894C104.821 96.8894 115.342 86.3689 115.342 73.453C115.342 60.5372 104.821 50.0166 91.9051 50.0166C78.9893 50.0166 68.4688 60.5372 68.4688 73.453ZM91.9051 53.1477C103.099 53.1477 112.21 62.2593 112.21 73.453C112.21 84.6467 103.099 93.7739 91.9051 93.7739C80.7114 93.7739 71.5999 84.6624 71.5999 73.4687C71.5999 62.2749 80.7114 53.1477 91.9051 53.1477Z" fill="black"/>
<path d="M93.471 45.3356C93.471 46.1966 92.7665 46.9011 91.9054 46.9011C91.0443 46.9011 90.3398 46.1966 90.3398 45.3356C90.3398 44.4745 91.0443 43.77 91.9054 43.77C92.7665 43.77 93.471 44.4745 93.471 45.3356Z" fill="black"/>
<path d="M111.835 95.4804C118.066 89.8444 121.604 81.907 121.604 73.4687C121.604 59.8796 112.43 48.0597 99.2794 44.7094C98.4497 44.4902 97.5886 45.0068 97.3851 45.8366C97.1816 46.6663 97.6825 47.5274 98.5123 47.7309C110.27 50.7368 118.489 61.3199 118.489 73.4687C118.489 88.2632 106.481 100.036 91.9213 100.036C77.3616 100.036 65.3538 88.2475 65.3538 73.4687C65.3538 61.3199 73.573 50.7368 85.3303 47.7309C86.16 47.5117 86.6767 46.6663 86.4575 45.8366C86.2227 44.9755 85.3773 44.4745 84.5475 44.6937C71.3968 48.044 62.2227 59.8796 62.2227 73.453C62.2227 81.8914 65.7765 89.8444 71.9917 95.4647L62.5827 112.06C62.2853 112.592 62.3166 113.249 62.6767 113.75C63.0367 114.251 63.663 114.486 64.2579 114.361L74.9506 112.138L78.708 122.721C78.9115 123.3 79.4281 123.707 80.0387 123.754C80.6493 123.801 81.2285 123.504 81.5416 122.972L91.9213 104.733L102.285 122.987C102.567 123.473 103.084 123.77 103.647 123.77H103.788C104.399 123.723 104.915 123.316 105.119 122.737L108.876 112.154L119.569 114.377C120.164 114.502 120.79 114.267 121.15 113.766C121.51 113.265 121.542 112.608 121.244 112.075L111.835 95.4804ZM80.5084 118.463L77.4399 109.805C77.1737 109.069 76.4223 108.631 75.6551 108.803L67.0133 110.604L74.4497 97.4687C78.7863 100.631 83.9369 102.557 89.2911 103.026L80.5084 118.463ZM108.172 108.803C107.405 108.647 106.638 109.069 106.387 109.805L103.319 118.463L94.5358 103.026C99.89 102.557 105.025 100.631 109.377 97.4687L116.829 110.604L108.172 108.803Z" fill="black"/>
<path d="M116.829 110.604L108.171 108.803C107.404 108.647 106.637 109.069 106.386 109.805L103.318 118.463L94.5352 103.026C99.8894 102.557 105.024 100.631 109.377 97.4686L116.829 110.604Z" fill="#2F80EC"/>
<path d="M89.2896 103.026L80.5068 118.463L77.4383 109.805C77.1722 109.069 76.4207 108.631 75.6536 108.803L67.0117 110.604L74.4481 97.4686C78.7847 100.631 83.9354 102.557 89.2896 103.026Z" fill="#2F80EC"/>
<path d="M86.5361 76.7406L86.5205 68.2553L89.1662 67.8483L88.8375 81.406L86.1604 81.813L83.4363 74.2671L83.0919 82.2827L80.4148 82.6898L76.0469 69.8522L78.7083 69.4451L81.2132 77.5391L81.495 69.0068L83.7338 68.6624L86.5361 76.7406Z" fill="black"/>
<path d="M95.3959 80.4197L92.7344 80.8267L90.7148 67.6291L93.3763 67.222L95.3959 80.4197Z" fill="black"/>
<path d="M106.874 78.6663L104.212 79.0733L98.9831 71.0107L100.298 79.6682L97.6368 80.0753L95.6172 66.8776L98.2786 66.4706L103.508 74.5489L102.193 65.8757L104.854 65.4686L106.874 78.6663Z" fill="black"/>
</g>
</g>
</g>
</g>
<defs>
<filter id="filter0_d_28_4425" x="0.75" y="0.77002" width="182" height="182" filterUnits="userSpaceOnUse" color-interpolation-filters="sRGB">
<feFlood flood-opacity="0" result="BackgroundImageFix"/>
<feColorMatrix in="SourceAlpha" type="matrix" values="0 0 0 0 0 0 0 0 0 0 0 0 0 0 0 0 0 0 127 0" result="hardAlpha"/>
<feOffset dy="8"/>
<feGaussianBlur stdDeviation="8"/>
<feComposite in2="hardAlpha" operator="out"/>
<feColorMatrix type="matrix" values="0 0 0 0 0 0 0 0 0 0 0 0 0 0 0 0 0 0 0.15 0"/>
<feBlend mode="normal" in2="BackgroundImageFix" result="effect1_dropShadow_28_4425"/>
<feBlend mode="normal" in="SourceGraphic" in2="effect1_dropShadow_28_4425" result="shape"/>
</filter>
<clipPath id="clip0_28_4425">
<rect width="80" height="80" fill="white" transform="translate(51.75 43.77)"/>
</clipPath>
<clipPath id="clip1_28_4425">
<rect width="80" height="80" fill="white" transform="translate(51.75 43.77)"/>
</clipPath>
<clipPath id="clip2_28_4425">
<rect width="80" height="80" fill="white" transform="translate(51.75 43.77)"/>
</clipPath>
</defs>
</svg>
