<svg width="182" height="183" viewBox="0 0 182 183" fill="none" xmlns="http://www.w3.org/2000/svg">
<g filter="url(#filter0_d_28_4417)">
<rect x="16" y="8.77002" width="150" height="150" rx="75" fill="#F5F7FA" shape-rendering="crispEdges"/>
<g clip-path="url(#clip0_28_4417)">
<g clip-path="url(#clip1_28_4417)">
<path d="M120.906 67.3325C120.891 67.2856 120.875 67.2544 120.859 67.2231C120.812 67.1294 120.75 67.0356 120.672 66.9575C120.641 66.9263 120.625 66.895 120.594 66.8638C120.5 66.77 120.375 66.6919 120.25 66.6294L112.25 63.0669C112.938 62.0981 113.406 60.9731 113.484 59.6763C113.672 56.52 111.594 53.77 108.297 52.8325C105.734 52.0981 102.859 52.6763 99.9688 54.4888C99.0781 55.0513 98.2188 55.7231 97.375 56.4575L91.5 53.8481C91.1719 53.7075 90.8125 53.7075 90.4844 53.8481L84.625 56.4575C82.0156 54.1606 79 52.52 75.9531 52.52C75.1875 52.52 74.4219 52.6294 73.7031 52.8325C70.4062 53.77 68.3281 56.52 68.5156 59.6763C68.5938 60.9888 69.0625 62.0981 69.75 63.0669L61.75 66.6294C61.625 66.6919 61.5 66.77 61.4062 66.8638C61.375 66.895 61.3594 66.9263 61.3281 66.9575C61.25 67.0356 61.2031 67.1294 61.1406 67.2231C61.125 67.2544 61.1094 67.3013 61.0937 67.3325C61.0469 67.4731 61 67.6138 61 67.77V100.989C61 101.489 61.2969 101.926 61.75 102.129L90.5 114.911C90.5156 114.926 90.5312 114.911 90.5625 114.926C90.7031 114.989 90.8594 115.02 91.0156 115.02C91.1719 115.02 91.3281 114.973 91.4688 114.926C91.4844 114.926 91.5156 114.926 91.5312 114.911L120.281 102.129C120.734 101.926 121.031 101.489 121.031 100.989V67.77C121 67.6138 120.969 67.4731 120.906 67.3325ZM89.75 81.3638V111.848L77.25 106.286V75.8013L89.75 81.3638ZM91 79.1763L79.125 73.895L89 69.5981C89.0156 69.5825 89.0312 69.5669 89.0469 69.5669C89.4844 69.5981 89.9375 69.6294 90.3594 69.6606C90.3594 69.6606 91 69.7075 91.0156 69.7075C91.0469 69.7075 91.625 69.6606 91.625 69.6606C92.0625 69.6294 92.5 69.5981 92.9531 69.5669C92.9688 69.5825 92.9844 69.5981 93 69.5981L102.875 73.895L91 79.1763ZM105.984 72.52L98.0781 69.0825C99.8438 68.8638 101.609 68.5825 103.359 68.145C105.062 67.7231 108.078 66.7544 110.391 64.9731L116.688 67.77L105.984 72.52ZM101.312 56.6138C103 55.5513 104.578 55.02 106.047 55.02C106.594 55.02 107.109 55.0981 107.625 55.2388C109.406 55.7544 111.141 57.27 111 59.5356C110.812 62.6294 106.609 64.77 102.75 65.7388C99.5 66.5513 96.0781 66.8638 92.7188 67.0981C93.9531 63.9106 97.2656 59.145 101.312 56.6138ZM91 56.3638L95.4844 58.3481C93.625 60.3794 92.0469 62.6919 91.0156 64.7856C90 62.6919 88.4531 60.3794 86.5625 58.3325L91 56.3638ZM74.3906 55.2388C74.8906 55.0981 75.4219 55.02 75.9531 55.02C81.3438 55.02 87.5 62.395 89.2969 67.0981C85.9375 66.8481 82.5156 66.5513 79.2656 65.7231C75.4062 64.7544 71.2031 62.6138 71.0156 59.52C70.875 57.27 72.6094 55.7388 74.3906 55.2388ZM71.625 64.9731C73.9375 66.7544 76.9531 67.7231 78.6562 68.145C80.3906 68.5825 82.1719 68.8638 83.9375 69.0825L76.0312 72.52L65.3438 67.77L71.625 64.9731ZM63.5 69.6919L74.75 74.6919V105.176L63.5 100.176V69.6919ZM92.25 81.3638L104.75 75.8013V106.286L92.25 111.848V81.3638ZM107.25 105.176V74.6919L118.5 69.6919V100.176L107.25 105.176Z" fill="black"/>
</g>
</g>
</g>
<defs>
<filter id="filter0_d_28_4417" x="0" y="0.77002" width="182" height="182" filterUnits="userSpaceOnUse" color-interpolation-filters="sRGB">
<feFlood flood-opacity="0" result="BackgroundImageFix"/>
<feColorMatrix in="SourceAlpha" type="matrix" values="0 0 0 0 0 0 0 0 0 0 0 0 0 0 0 0 0 0 127 0" result="hardAlpha"/>
<feOffset dy="8"/>
<feGaussianBlur stdDeviation="8"/>
<feComposite in2="hardAlpha" operator="out"/>
<feColorMatrix type="matrix" values="0 0 0 0 0 0 0 0 0 0 0 0 0 0 0 0 0 0 0.15 0"/>
<feBlend mode="normal" in2="BackgroundImageFix" result="effect1_dropShadow_28_4417"/>
<feBlend mode="normal" in="SourceGraphic" in2="effect1_dropShadow_28_4417" result="shape"/>
</filter>
<clipPath id="clip0_28_4417">
<rect width="80" height="80" fill="white" transform="translate(51 43.77)"/>
</clipPath>
<clipPath id="clip1_28_4417">
<rect width="80" height="80" fill="white" transform="translate(51 43.77)"/>
</clipPath>
</defs>
</svg>
