<svg width="183" height="183" viewBox="0 0 183 183" fill="none" xmlns="http://www.w3.org/2000/svg">
<g filter="url(#filter0_d_28_4403)">
<rect x="16.25" y="8.77002" width="150" height="150" rx="75" fill="#F5F7FA" shape-rendering="crispEdges"/>
<g clip-path="url(#clip0_28_4403)">
<g clip-path="url(#clip1_28_4403)">
<g clip-path="url(#clip2_28_4403)">
<path d="M124.139 51.4888C123.03 50.1919 121.42 49.4419 119.717 49.4419H114.123V47.6919C114.123 45.5356 112.358 43.77 110.202 43.77H72.2954C70.1391 43.77 68.3735 45.5356 68.3735 47.6919V49.4419H62.7797C61.0766 49.4419 59.4672 50.1919 58.3579 51.4888C57.2641 52.77 56.7954 54.4575 57.061 56.1138C58.5297 65.145 64.2173 73.1294 72.2798 77.5044C73.0141 79.27 73.8579 80.9575 74.7798 82.52C77.7485 87.52 81.436 90.9731 85.4985 92.645C85.9047 96.8013 83.1391 100.754 78.9672 101.692C78.9516 101.692 78.9516 101.692 78.936 101.692C78.1235 101.879 77.5141 102.614 77.5141 103.489V111.989H74.0766C71.0141 111.989 68.5297 114.473 68.5297 117.536V121.926C68.5297 122.942 69.3579 123.786 70.3735 123.786H112.248C113.264 123.786 114.108 122.958 114.108 121.926V117.536C114.108 114.473 111.623 111.989 108.561 111.989H105.123V103.489C105.123 102.614 104.514 101.879 103.702 101.692H103.686C99.4829 100.739 96.7016 96.77 97.1547 92.5669C101.139 90.8638 104.78 87.4419 107.702 82.52C108.623 80.9575 109.467 79.27 110.202 77.5044C118.264 73.1294 123.952 65.145 125.42 56.1138C125.702 54.4575 125.217 52.77 124.139 51.4888ZM60.7329 55.52C60.6391 54.9263 60.7954 54.3481 61.186 53.8794C61.5922 53.4106 62.1704 53.145 62.7797 53.145H68.3735V56.5513C68.3735 61.895 69.061 67.0669 70.3422 71.8013C65.2641 67.7856 61.7797 61.9575 60.7329 55.52ZM108.577 115.676C109.592 115.676 110.436 116.504 110.436 117.536V120.067H72.2485V117.536C72.2485 116.52 73.0766 115.676 74.1079 115.676H108.577ZM101.436 105.333V111.973H81.2485V105.333H101.436ZM86.0922 101.629C86.5454 101.129 86.9672 100.583 87.3422 99.9888C88.5766 98.0669 89.2172 95.8638 89.2485 93.6294C89.9047 93.7231 90.5766 93.77 91.2329 93.77C91.9672 93.77 92.686 93.7075 93.4047 93.6138C93.4516 96.6138 94.6235 99.4731 96.5766 101.629H86.0922ZM110.42 56.5513C110.42 65.6763 108.327 74.2231 104.53 80.6138C100.905 86.7075 96.186 90.0669 91.2485 90.0669C86.311 90.0669 81.5922 86.7075 77.9672 80.6138C74.1704 74.2075 72.0766 65.6606 72.0766 56.5513V47.6919C72.0766 47.5669 72.1704 47.4731 72.2954 47.4731H110.202C110.327 47.4731 110.42 47.5669 110.42 47.6919V56.5513ZM121.764 55.52C120.717 61.9575 117.217 67.7856 112.139 71.8013C113.436 67.0669 114.108 61.895 114.108 56.5513V53.145H119.702C120.311 53.145 120.905 53.4106 121.295 53.8794C121.702 54.3481 121.873 54.9263 121.764 55.52Z" fill="black"/>
<path d="M110.438 117.536V120.067H72.25V117.536C72.25 116.52 73.0781 115.676 74.1094 115.676H108.578C109.594 115.676 110.438 116.504 110.438 117.536Z" fill="#27AE61"/>
<path d="M102.485 62.7856C102.266 62.1138 101.688 61.6294 100.985 61.52L95.391 60.7075L92.891 55.645C92.5785 55.02 91.9379 54.6138 91.2348 54.6138C90.5317 54.6138 89.891 55.02 89.5785 55.645L87.0785 60.7075L81.4848 61.52C80.7817 61.6138 80.2035 62.1138 79.9848 62.7856C79.766 63.4575 79.9535 64.1919 80.4535 64.6763L84.5004 68.6138L83.5473 74.1763C83.4223 74.8638 83.7192 75.5669 84.2817 75.9888C84.8442 76.4106 85.6098 76.4575 86.2348 76.1294L91.2348 73.5044L96.2348 76.1294C96.5004 76.27 96.7973 76.3481 97.0942 76.3481C97.4848 76.3481 97.8598 76.2231 98.1879 75.9888C98.7504 75.5669 99.0473 74.8794 98.9223 74.1763L97.9692 68.6138L102.016 64.6763C102.532 64.1919 102.704 63.4419 102.485 62.7856ZM94.7035 66.645C94.266 67.0669 94.0629 67.6763 94.1723 68.2856L94.6567 71.1138L92.1254 69.7856C91.8598 69.645 91.5629 69.5669 91.266 69.5669C90.9692 69.5669 90.6723 69.645 90.4067 69.7856L87.8754 71.1138L88.3598 68.2856C88.4692 67.6919 88.266 67.0669 87.8285 66.645L85.7817 64.645L88.5942 64.2388C89.2035 64.145 89.7192 63.77 89.9848 63.2231L91.2504 60.645L92.516 63.2231C92.7817 63.77 93.3129 64.145 93.9067 64.2388L96.7504 64.645L94.7035 66.645Z" fill="black"/>
<path d="M94.7031 66.645C94.2656 67.0669 94.0625 67.6763 94.1719 68.2856L94.6562 71.1138L92.125 69.7856C91.8594 69.645 91.5625 69.5669 91.2656 69.5669C90.9688 69.5669 90.6719 69.645 90.4063 69.7856L87.875 71.1138L88.3594 68.2856C88.4688 67.6919 88.2656 67.0669 87.8281 66.645L85.7812 64.645L88.5938 64.2388C89.2031 64.145 89.7187 63.77 89.9844 63.2231L91.25 60.645L92.5156 63.2231C92.7813 63.77 93.3125 64.145 93.9062 64.2388L96.75 64.645L94.7031 66.645Z" fill="#27AE61"/>
</g>
</g>
</g>
</g>
<defs>
<filter id="filter0_d_28_4403" x="0.25" y="0.77002" width="182" height="182" filterUnits="userSpaceOnUse" color-interpolation-filters="sRGB">
<feFlood flood-opacity="0" result="BackgroundImageFix"/>
<feColorMatrix in="SourceAlpha" type="matrix" values="0 0 0 0 0 0 0 0 0 0 0 0 0 0 0 0 0 0 127 0" result="hardAlpha"/>
<feOffset dy="8"/>
<feGaussianBlur stdDeviation="8"/>
<feComposite in2="hardAlpha" operator="out"/>
<feColorMatrix type="matrix" values="0 0 0 0 0 0 0 0 0 0 0 0 0 0 0 0 0 0 0.15 0"/>
<feBlend mode="normal" in2="BackgroundImageFix" result="effect1_dropShadow_28_4403"/>
<feBlend mode="normal" in="SourceGraphic" in2="effect1_dropShadow_28_4403" result="shape"/>
</filter>
<clipPath id="clip0_28_4403">
<rect width="80" height="80" fill="white" transform="translate(51.25 43.77)"/>
</clipPath>
<clipPath id="clip1_28_4403">
<rect width="80" height="80" fill="white" transform="translate(51.25 43.77)"/>
</clipPath>
<clipPath id="clip2_28_4403">
<rect width="80" height="80" fill="white" transform="translate(51.25 43.77)"/>
</clipPath>
</defs>
</svg>
