<svg width="183" height="183" viewBox="0 0 183 183" fill="none" xmlns="http://www.w3.org/2000/svg">
<g filter="url(#filter0_d_28_4441)">
<rect x="16.5" y="8.77002" width="150" height="150" rx="75" fill="#F5F7FA" shape-rendering="crispEdges"/>
<g clip-path="url(#clip0_28_4441)">
<g clip-path="url(#clip1_28_4441)">
<g clip-path="url(#clip2_28_4441)">
<path d="M122.344 79.1138C122.391 79.1606 122.406 79.1763 122.344 79.1138V79.1138Z" fill="black"/>
<path d="M131.094 74.02L112.876 52.3482C112.297 51.6294 111.251 51.52 110.532 52.0982L102.86 58.5357C102.157 59.1294 102.063 60.1763 102.657 60.8794L100.547 62.6607C95.5474 62.9419 93.688 62.77 91.5005 63.9575C89.4536 62.8482 88.3286 62.9732 82.4224 62.6763L80.313 60.8794C80.9068 60.1919 80.813 59.1294 80.1099 58.5357L72.438 52.0982C71.7505 51.52 70.688 51.5982 70.0943 52.3169L51.8755 74.02C51.2974 74.7075 51.3755 75.77 52.0943 76.3638L59.8599 82.8169C60.5474 83.395 61.6099 83.3169 62.2036 82.5982L64.3443 84.395C65.5318 89.4888 65.6411 91.0513 67.1411 92.9732C64.8911 94.5669 64.3755 97.7075 65.9849 99.9575C66.7818 101.051 68.0005 101.801 69.3443 101.989C69.2505 104.77 71.438 107.067 74.188 107.129C74.4068 107.145 74.6255 107.129 74.8443 107.114C75.3286 109.723 77.7661 111.504 80.4068 111.161C80.8286 113.504 82.8911 115.223 85.2661 115.208C87.2974 115.208 88.188 114.27 90.1099 112.676C91.7818 114.098 92.9693 115.411 95.1099 115.411C97.2974 115.426 99.2193 114.036 99.9068 111.973C101.954 112.911 104.36 112.379 105.813 110.676C106.954 109.317 106.376 109.004 106.907 109.395C109.079 111.114 112.219 110.754 113.922 108.583C115.266 106.911 115.376 104.536 114.188 102.739C116.657 101.489 117.641 98.4888 116.391 96.02C116.032 95.2857 115.485 94.6607 114.813 94.1919C117.422 91.9732 117.532 89.6607 118.766 84.3794C122.094 81.5357 120.157 83.0044 122.094 83.1763C123.016 83.27 122.813 83.1763 130.954 76.3638C131.641 75.7544 131.704 74.7075 131.094 74.02ZM60.813 78.9575C60.813 78.9575 60.7974 78.9732 60.7505 79.02C60.7036 79.0513 60.6568 79.0982 60.6099 79.1607L55.5161 74.8794L71.5943 55.7388L76.688 60.02C64.688 74.3325 61.5318 78.1138 60.813 78.9575ZM69.813 98.77C68.9068 98.7388 68.188 97.9732 68.2036 97.0513C68.2193 96.5513 68.4536 96.0825 68.8599 95.7857C71.2974 93.7232 71.6255 93.2544 72.4693 93.2544C73.3911 93.27 74.1411 94.02 74.1255 94.9419C74.1255 95.4263 73.9068 95.8794 73.5474 96.1919C70.7974 98.52 70.6724 98.77 69.813 98.77ZM74.0943 103.739C73.1724 103.629 72.5318 102.801 72.6411 101.879C72.688 101.504 72.8755 101.129 73.1724 100.864L75.7193 98.7544C76.0161 98.5357 76.3599 98.4419 76.688 98.4419C77.2036 98.4419 77.7193 98.6919 78.0474 99.145C78.5318 99.8169 78.438 100.739 77.8443 101.317C75.3286 103.426 75.0005 103.926 74.0943 103.739ZM83.4224 105.286C80.9693 107.364 80.6099 107.879 79.8599 107.879C79.7974 107.879 79.7193 107.864 79.6568 107.864V107.817C78.7349 107.739 78.063 106.942 78.1411 106.02C78.1724 105.567 78.3911 105.161 78.7193 104.879L80.0005 103.801L81.2818 102.739C81.9693 102.145 83.0318 102.239 83.6255 102.942C84.2193 103.629 84.1255 104.692 83.4224 105.286ZM88.9849 109.317L86.5005 111.52C85.7974 112.129 84.7193 112.051 84.1099 111.348C83.5005 110.645 83.5786 109.567 84.2818 108.958V108.911C87.1724 106.473 87.1411 106.379 87.8911 106.379C88.813 106.379 89.563 107.129 89.563 108.051C89.563 108.536 89.3443 109.004 88.9849 109.317ZM96.6411 111.536C96.0161 112.254 94.938 112.348 94.2193 111.708L94.2818 111.661L92.4849 110.161C94.5005 105.864 89.0318 103.208 96.4849 109.129C97.2036 109.77 97.2661 110.848 96.6411 111.536ZM113.313 99.2388C112.797 100.004 111.751 100.192 111.001 99.6607C110.969 99.645 110.922 99.6138 110.891 99.5825L110.938 99.5357L99.7349 90.1294C98.9849 89.5982 97.9536 89.77 97.4068 90.52C96.9224 91.1919 97.0161 92.1138 97.6099 92.6919L111.219 104.145C112.001 104.629 112.235 105.661 111.751 106.442C111.266 107.223 110.235 107.458 109.454 106.973C109.376 106.926 109.282 106.848 109.219 106.786C105.219 103.458 109.422 106.973 94.9224 94.8013C94.1724 94.27 93.1411 94.4419 92.5943 95.1919C92.1099 95.8638 92.2036 96.7857 92.7974 97.3638L103.172 106.208C103.876 106.801 103.954 107.848 103.376 108.551C103.063 108.879 102.672 109.098 102.219 109.129C101.344 109.223 102.032 109.598 91.2036 100.52C89.6568 99.2075 87.0943 101.411 89.4068 103.348C88.688 103.114 87.938 103.051 87.188 103.145C86.7036 100.536 84.2661 98.77 81.6255 99.1138C81.2661 97.0044 79.5786 95.3638 77.438 95.0825C77.5005 92.3169 75.313 90.0357 72.5474 89.9575C71.4849 89.9263 70.4224 90.2544 69.563 90.8638C67.8911 88.5044 68.2349 83.395 66.313 81.8325L64.2505 80.0357L78.1568 63.4263C80.4849 65.395 80.9224 65.9263 82.2505 65.9888C88.1255 66.3013 87.7505 66.2544 88.3443 66.3482C79.688 73.5982 77.5786 74.5044 77.5786 78.1138C77.5943 81.1294 79.8755 83.6294 82.8755 83.9107C85.9849 84.1919 87.3755 82.3794 91.4536 78.9107C111.188 95.4107 96.938 83.5044 112.891 96.9263C113.641 97.4419 113.844 98.4888 113.313 99.2388ZM114.282 88.9575C114.032 90.2388 113.297 91.3638 112.235 92.0982C106.501 87.0982 99.8286 81.6607 94.063 76.7857L95.4536 75.6138C96.1724 75.0357 96.2505 73.9888 95.6724 73.27C95.0943 72.5513 94.0474 72.4732 93.3286 73.0513C84.1255 80.7857 84.5786 80.7075 83.188 80.5982C81.9068 80.4575 80.938 79.395 80.9224 78.1138C80.9224 76.4419 80.9224 76.9419 92.3443 67.3638C93.1568 66.7388 94.1411 66.3482 95.1724 66.2857C102.797 65.8794 101.235 66.4419 104.829 63.4263L118.751 80.0982C115.204 83.02 115.985 81.5357 114.282 88.9575ZM122.391 79.1294C122.282 79.02 122.235 78.9575 122.204 78.9419C122.188 78.9263 122.172 78.9263 122.172 78.9107C121.407 77.9888 118.172 74.1138 106.329 59.9732L111.501 55.7388L127.563 74.8794L122.391 79.1294Z" fill="black"/>
<path d="M127.562 74.8794L122.391 79.1294C122.281 79.02 122.234 78.9575 122.203 78.9419C122.188 78.9263 122.172 78.9263 122.172 78.9106C121.406 77.9888 118.172 74.1138 106.328 59.9731L111.5 55.7388L127.562 74.8794Z" fill="#9A51E0"/>
<path d="M76.6875 60.02C64.6875 74.3325 61.5312 78.1138 60.8125 78.9575C60.8125 78.9575 60.7969 78.9731 60.75 79.02C60.7031 79.0513 60.6562 79.0981 60.6094 79.1606L55.5156 74.8794L71.5938 55.7388L76.6875 60.02Z" fill="#9A51E0"/>
</g>
</g>
</g>
</g>
<defs>
<filter id="filter0_d_28_4441" x="0.5" y="0.77002" width="182" height="182" filterUnits="userSpaceOnUse" color-interpolation-filters="sRGB">
<feFlood flood-opacity="0" result="BackgroundImageFix"/>
<feColorMatrix in="SourceAlpha" type="matrix" values="0 0 0 0 0 0 0 0 0 0 0 0 0 0 0 0 0 0 127 0" result="hardAlpha"/>
<feOffset dy="8"/>
<feGaussianBlur stdDeviation="8"/>
<feComposite in2="hardAlpha" operator="out"/>
<feColorMatrix type="matrix" values="0 0 0 0 0 0 0 0 0 0 0 0 0 0 0 0 0 0 0.15 0"/>
<feBlend mode="normal" in2="BackgroundImageFix" result="effect1_dropShadow_28_4441"/>
<feBlend mode="normal" in="SourceGraphic" in2="effect1_dropShadow_28_4441" result="shape"/>
</filter>
<clipPath id="clip0_28_4441">
<rect width="80" height="80" fill="white" transform="translate(51.5 43.77)"/>
</clipPath>
<clipPath id="clip1_28_4441">
<rect width="80" height="80" fill="white" transform="translate(51.5 43.77)"/>
</clipPath>
<clipPath id="clip2_28_4441">
<rect width="80" height="80" fill="white" transform="translate(51.5 43.77)"/>
</clipPath>
</defs>
</svg>
