<svg width="250" height="502" viewBox="0 0 250 502" fill="none" xmlns="http://www.w3.org/2000/svg">
<path d="M250 119.146H247.245V43.6785C247.245 32.0943 242.643 20.9845 234.452 12.7931C226.261 4.60184 215.151 7.36132e-06 203.567 1.18565e-10H43.6786C37.9427 -1.33645e-05 32.2629 1.12975 26.9635 3.32479C21.6642 5.51983 16.8491 8.73716 12.7932 12.7931C8.73727 16.849 5.51992 21.6641 3.32486 26.9634C1.1298 32.2627 9.71974e-06 37.9425 0 43.6784V457.699C-9.81493e-06 469.283 4.60181 480.393 12.7931 488.584C20.9844 496.776 32.0942 501.377 43.6785 501.377H203.566C215.151 501.377 226.261 496.776 234.452 488.584C242.643 480.393 247.245 469.283 247.245 457.699V172.865H250V119.146Z" fill="#6C63FF"/>
<path d="M205.328 11.364H184.457C185.417 13.7171 185.783 16.2701 185.524 18.7981C185.264 21.3262 184.387 23.7516 182.97 25.8609C181.552 27.9701 179.638 29.6984 177.395 30.8934C175.152 32.0885 172.65 32.7136 170.109 32.7138H78.5109C75.9696 32.7136 73.4673 32.0885 71.2245 30.8934C68.9817 29.6984 67.0673 27.9701 65.6498 25.8609C64.2323 23.7516 63.3552 21.3261 63.0959 18.7981C62.8366 16.2701 63.2029 13.717 64.1627 11.364H44.6695C40.3859 11.3639 36.1443 12.2076 32.1869 13.8469C28.2294 15.4861 24.6335 17.8888 21.6046 20.9177C18.5757 23.9466 16.173 27.5424 14.5337 31.4999C12.8945 35.4574 12.0508 39.699 12.0508 43.9825V457.395C12.0508 461.679 12.8945 465.921 14.5337 469.878C16.1729 473.836 18.5756 477.431 21.6045 480.46C24.6334 483.489 28.2293 485.892 32.1868 487.531C36.1443 489.17 40.3858 490.014 44.6694 490.014H205.328C213.979 490.014 222.275 486.578 228.392 480.46C234.51 474.343 237.946 466.047 237.946 457.396V43.9826C237.946 39.6991 237.102 35.4575 235.463 31.5C233.824 27.5425 231.421 23.9467 228.392 20.9177C225.363 17.8888 221.768 15.4861 217.81 13.8469C213.853 12.2077 209.611 11.364 205.328 11.364Z" fill="white"/>
<path d="M147.172 384.788C147.172 400.895 134.819 413.953 119.58 413.953C104.341 413.953 91.9883 400.895 91.9883 384.788C91.9883 384.423 91.9939 384.061 92.0086 383.699C92.2883 367.595 104.87 354.784 120.106 355.085C135.342 355.385 147.462 368.684 147.177 384.788H147.172Z" fill="#6C63FF"/>
<path d="M109.463 397.395L101.188 386.935L103.147 385.541L109.889 394.062L136.432 373.477L137.983 375.275L109.463 397.395Z" fill="white"/>
<path d="M28.3286 103.028C27.6464 103.03 26.9925 103.321 26.5105 103.838C26.0285 104.356 25.7578 105.057 25.7578 105.788C25.7578 106.519 26.0285 107.22 26.5105 107.738C26.9925 108.255 27.6464 108.546 28.3286 108.548H216.365C217.047 108.546 217.701 108.255 218.183 107.738C218.665 107.22 218.936 106.519 218.936 105.788C218.936 105.057 218.665 104.356 218.183 103.838C217.701 103.321 217.047 103.03 216.365 103.028H28.3286Z" fill="#CCCCCC"/>
<path d="M28.3576 117.747C27.6692 117.746 27.0088 118.036 26.5213 118.552C26.0339 119.068 25.7593 119.769 25.7578 120.5C25.7564 121.232 26.0282 121.934 26.5136 122.452C26.999 122.971 27.6583 123.263 28.3467 123.266H148.266C148.607 123.266 148.945 123.195 149.26 123.056C149.575 122.917 149.861 122.714 150.103 122.458C150.344 122.201 150.535 121.897 150.666 121.562C150.796 121.228 150.864 120.869 150.864 120.506C150.864 120.144 150.796 119.785 150.666 119.45C150.535 119.115 150.344 118.811 150.103 118.555C149.861 118.299 149.575 118.095 149.26 117.957C148.945 117.818 148.607 117.747 148.266 117.747H28.3576Z" fill="#CCCCCC"/>
<path d="M215.253 82.8926C215.253 88.9328 210.312 93.8293 204.217 93.8293C198.121 93.8293 193.18 88.9328 193.18 82.8926C193.18 82.7557 193.182 82.6198 193.188 82.484C193.3 76.445 198.333 71.641 204.427 71.7538C210.521 71.8666 215.369 76.8536 215.255 82.8926H215.253Z" fill="#6C63FF"/>
<path d="M199.756 88.3099L196.859 84.2869L197.545 83.7506L199.905 87.0281L209.195 79.111L209.738 79.8025L199.756 88.3099Z" fill="white"/>
<path d="M28.3286 196.858C27.6464 196.859 26.9925 197.15 26.5105 197.668C26.0285 198.185 25.7578 198.886 25.7578 199.617C25.7578 200.348 26.0285 201.049 26.5105 201.567C26.9925 202.084 27.6464 202.376 28.3286 202.377H216.365C217.047 202.376 217.701 202.084 218.183 201.567C218.665 201.049 218.936 200.348 218.936 199.617C218.936 198.886 218.665 198.185 218.183 197.668C217.701 197.15 217.047 196.859 216.365 196.858H28.3286Z" fill="#CCCCCC"/>
<path d="M28.3576 213.416C27.6692 213.415 27.0088 213.609 26.5213 213.953C26.0339 214.297 25.7593 214.764 25.7578 215.252C25.7564 215.739 26.0282 216.207 26.5136 216.553C26.999 216.898 27.6583 217.094 28.3467 217.095H148.266C148.955 217.095 149.615 216.901 150.103 216.556C150.59 216.211 150.864 215.743 150.864 215.256C150.864 214.768 150.59 214.3 150.103 213.955C149.615 213.61 148.955 213.416 148.266 213.416H28.3576Z" fill="#CCCCCC"/>
<path d="M213.414 177.65C213.414 184.194 208.472 189.498 202.377 189.498C196.281 189.498 191.34 184.194 191.34 177.65C191.34 177.502 191.342 177.355 191.348 177.208C191.46 170.665 196.493 165.461 202.587 165.583C208.681 165.705 213.529 171.108 213.415 177.65H213.414Z" fill="#6C63FF"/>
<path d="M198.33 182.139L195.02 178.116L195.803 177.58L198.5 180.857L209.117 172.94L209.738 173.632L198.33 182.139Z" fill="white"/>
<path d="M28.3286 292.527C27.6464 292.528 26.9925 292.722 26.5105 293.067C26.0285 293.412 25.7578 293.879 25.7578 294.366C25.7578 294.854 26.0285 295.321 26.5105 295.666C26.9925 296.011 27.6464 296.205 28.3286 296.206H216.365C217.047 296.205 217.701 296.011 218.183 295.666C218.665 295.321 218.936 294.854 218.936 294.366C218.936 293.879 218.665 293.412 218.183 293.067C217.701 292.722 217.047 292.528 216.365 292.527H28.3286Z" fill="#CCCCCC"/>
<path d="M28.3576 307.245C27.6692 307.245 27.0088 307.534 26.5213 308.051C26.0339 308.567 25.7593 309.268 25.7578 309.999C25.7564 310.73 26.0282 311.432 26.5136 311.951C26.999 312.469 27.6583 312.762 28.3467 312.764H148.266C148.955 312.764 149.615 312.474 150.103 311.956C150.59 311.439 150.864 310.737 150.864 310.005C150.864 309.273 150.59 308.571 150.103 308.053C149.615 307.536 148.955 307.245 148.266 307.245H28.3576Z" fill="#CCCCCC"/>
<path d="M213.414 272.391C213.414 278.431 208.472 283.328 202.377 283.328C196.281 283.328 191.34 278.431 191.34 272.391C191.34 272.254 191.342 272.118 191.348 271.982C191.46 265.943 196.493 261.139 202.587 261.252C208.681 261.365 213.529 266.352 213.415 272.391H213.414Z" fill="#6C63FF"/>
<path d="M198.33 277.808L195.02 272.981L195.803 272.337L198.5 276.27L209.117 266.77L209.738 267.599L198.33 277.808Z" fill="white"/>
</svg>
