<svg width="46" height="45" viewBox="0 0 46 45" fill="none" xmlns="http://www.w3.org/2000/svg">
<rect x="0.5" width="45" height="45" rx="15" fill="#6C63FF"/>
<g clip-path="url(#clip0_6_7806)">
<path d="M33 27.19C33 30.83 30.83 33 27.19 33H26C25.45 33 25 32.55 25 32V26.23C25 25.96 25.22 25.73 25.49 25.73L27.25 25.7C27.39 25.69 27.51 25.59 27.54 25.45L27.89 23.54C27.92 23.36 27.78 23.19 27.59 23.19L25.46 23.22C25.18 23.22 24.96 23 24.95 22.73L24.91 20.28C24.91 20.12 25.04 19.98 25.21 19.98L27.61 19.94C27.78 19.94 27.91 19.81 27.91 19.64L27.87 17.24C27.87 17.07 27.74 16.94 27.57 16.94L24.87 16.98C23.21 17.01 21.89 18.37 21.92 20.03L21.97 22.78C21.98 23.06 21.76 23.28 21.48 23.29L20.28 23.31C20.11 23.31 19.98 23.44 19.98 23.61L20.01 25.51C20.01 25.68 20.14 25.81 20.31 25.81L21.51 25.79C21.79 25.79 22.01 26.01 22.02 26.28L22.11 31.98C22.12 32.54 21.67 33 21.11 33H18.81C15.17 33 13 30.83 13 27.18V18.81C13 15.17 15.17 13 18.81 13H27.19C30.83 13 33 15.17 33 18.81V27.19Z" fill="white"/>
</g>
<defs>
<clipPath id="clip0_6_7806">
<rect width="24" height="24" fill="white" transform="translate(11.5 11)"/>
</clipPath>
</defs>
</svg>
