<svg width="75" height="76" viewBox="0 0 75 76" fill="none" xmlns="http://www.w3.org/2000/svg">
<g clip-path="url(#clip0_2_1067)">
<g clip-path="url(#clip1_2_1067)">
<path d="M69.7266 33.4653C69.4336 25.2915 66.123 17.6304 60.3076 11.8149C54.2139 5.72119 46.1133 2.3667 37.5 2.3667C20.0977 2.3667 5.87402 16.2095 5.27344 33.4653C2.62207 34.6519 0.761719 37.3032 0.761719 40.394V48.9048C0.761719 53.0796 4.16016 56.478 8.34961 56.478C11.0596 56.478 13.2568 54.2808 13.2568 51.5708V37.7134C13.2568 35.1792 11.3086 33.0991 8.83301 32.8647C9.72656 17.8355 22.2363 5.88232 37.5 5.88232C45.1758 5.88232 52.3975 8.87061 57.832 14.3052C62.8271 19.3003 65.7422 25.8042 66.1816 32.8647C63.7061 33.1138 61.7578 35.1792 61.7578 37.7134V51.5708C61.7578 54.1343 63.7354 56.2144 66.2402 56.4341V59.9497C66.2402 63.8901 63.0322 67.0981 59.0918 67.0981H53.7891C53.5254 66.3511 53.1152 65.6626 52.5439 65.106C51.5479 64.0952 50.2002 63.5386 48.7793 63.5386H43.3154C42.5244 63.5386 41.7773 63.6997 41.0889 64.022C39.2139 64.8862 37.998 66.7759 37.998 68.856C37.998 70.2769 38.5547 71.6099 39.5508 72.6206C40.5615 73.6313 41.8945 74.1733 43.3154 74.1733H48.7793C51.0498 74.1733 53.042 72.7085 53.7891 70.6138H59.0771C64.9658 70.6138 69.7412 65.8237 69.7412 59.9497V55.8188C72.3779 54.6323 74.2236 51.981 74.2236 48.9048V40.394C74.2529 37.3032 72.3926 34.6519 69.7266 33.4653ZM9.72656 37.7134V51.5708C9.72656 52.3325 9.11133 52.9624 8.33496 52.9624C6.09375 52.9624 4.27734 51.146 4.27734 48.9048V40.394C4.27734 38.1528 6.09375 36.3364 8.33496 36.3364C9.09668 36.3364 9.72656 36.9517 9.72656 37.7134ZM50.5518 69.2368C50.376 70.0718 49.6289 70.6724 48.7939 70.6724H43.3301C42.8467 70.6724 42.3926 70.4819 42.0557 70.145C41.7188 69.8081 41.5283 69.354 41.5283 68.8706C41.5283 68.1675 41.9385 67.5229 42.583 67.23C42.8174 67.1274 43.0664 67.0688 43.3301 67.0688H48.7939C49.2773 67.0688 49.7314 67.2593 50.0684 67.5962C50.4053 67.9331 50.5957 68.3872 50.5957 68.8706C50.5957 68.9878 50.5811 69.1196 50.5518 69.2368ZM70.7373 48.9048C70.7373 51.146 68.9062 52.9624 66.665 52.9624C65.9033 52.9624 65.2734 52.3472 65.2734 51.5708V37.7134C65.2734 36.9517 65.8887 36.3218 66.665 36.3218C68.9062 36.3218 70.7373 38.1528 70.7373 40.3794V48.9048Z" fill="black"/>
<path d="M50.5947 68.856C50.5947 68.9878 50.5801 69.1196 50.5508 69.2368C50.375 70.0718 49.6279 70.6724 48.793 70.6724H43.3291C42.8457 70.6724 42.3916 70.4819 42.0547 70.145C41.7178 69.8081 41.5273 69.354 41.5273 68.8706C41.5273 68.1675 41.9375 67.523 42.582 67.23C42.8164 67.1274 43.0654 67.0688 43.3291 67.0688H48.793C49.2764 67.0688 49.7305 67.2593 50.0674 67.5962C50.4043 67.9185 50.5947 68.3726 50.5947 68.856Z" fill="#0752B5"/>
<path d="M70.7373 40.394V48.9048C70.7373 51.146 68.9062 52.9624 66.665 52.9624C65.9033 52.9624 65.2734 52.3472 65.2734 51.5708V37.7134C65.2734 36.9517 65.8887 36.3218 66.665 36.3218C68.9062 36.3364 70.7373 38.1528 70.7373 40.394Z" fill="#0752B5"/>
<path d="M9.72656 37.7134V51.5708C9.72656 52.3325 9.11133 52.9624 8.33496 52.9624C6.09375 52.9624 4.27734 51.146 4.27734 48.9048V40.394C4.27734 38.1528 6.09375 36.3364 8.33496 36.3364C9.09668 36.3364 9.72656 36.9517 9.72656 37.7134Z" fill="#0752B5"/>
<path d="M54.1396 21.6147C52.7334 20.2085 50.8584 19.4321 48.8809 19.4321H26.1172C22.0156 19.4321 18.6758 22.772 18.6758 26.8882V42.064C18.6758 46.1655 22.0156 49.5054 26.1172 49.5054H26.2637V53.4312C26.2637 54.9253 27.1572 56.2583 28.5342 56.8296C28.9883 57.0054 29.4424 57.0933 29.9111 57.0933C30.8633 57.0933 31.8008 56.7124 32.4893 56.0093L39.0371 49.5054H48.8955C52.9971 49.5054 56.3369 46.1655 56.3369 42.064V26.8882C56.3223 24.896 55.5605 23.0356 54.1396 21.6147ZM52.8213 42.064C52.8213 44.2319 51.0635 45.9897 48.8955 45.9897H38.3047C37.8359 45.9897 37.3965 46.1655 37.0596 46.5024L29.9844 53.5483C29.9551 53.5776 29.9258 53.6069 29.8672 53.5776C29.7939 53.5483 29.7939 53.4897 29.7939 53.4458V47.7622C29.7939 46.7954 29.0029 46.0044 28.0361 46.0044H26.1318C23.9639 46.0044 22.2061 44.2466 22.2061 42.0786V26.8882C22.2061 24.7202 23.9639 22.9478 26.1318 22.9478H48.8955C49.9355 22.9478 50.9316 23.3579 51.6787 24.105C52.4258 24.8521 52.8359 25.8335 52.8359 26.8882L52.8213 42.064Z" fill="black"/>
<path d="M51.6641 24.105C50.917 23.3579 49.9355 22.9478 48.8809 22.9478H26.1172C23.9492 22.9478 22.1914 24.7056 22.1914 26.8882V42.064C22.1914 44.2319 23.9492 45.9897 26.1172 45.9897H28.0215C28.9883 45.9897 29.7793 46.7808 29.7793 47.7476V53.4312C29.7793 53.4751 29.7793 53.5337 29.8525 53.563C29.9258 53.5923 29.9404 53.563 29.9697 53.5337L37.0449 46.4878C37.3672 46.1655 37.8213 45.9751 38.29 45.9751H48.8809C51.0488 45.9751 52.8066 44.2173 52.8066 42.0493V26.8882C52.8213 25.8335 52.4111 24.8521 51.6641 24.105ZM28.959 37.3472C27.5234 37.3472 26.3662 36.1753 26.3662 34.7544C26.3662 33.3335 27.5234 32.1616 28.959 32.1616C30.3945 32.1616 31.5518 33.3335 31.5518 34.7544C31.5518 36.1753 30.3945 37.3472 28.959 37.3472ZM37.499 37.3472C36.0635 37.3472 34.9062 36.1753 34.9062 34.7544C34.9062 33.3335 36.0635 32.1616 37.499 32.1616C38.9346 32.1616 40.0918 33.3335 40.0918 34.7544C40.0918 36.1753 38.9346 37.3472 37.499 37.3472ZM46.0391 37.3472C44.6035 37.3472 43.4463 36.1753 43.4463 34.7544C43.4463 33.3335 44.6035 32.1616 46.0391 32.1616C47.4746 32.1616 48.6318 33.3335 48.6318 34.7544C48.6318 36.1753 47.46 37.3472 46.0391 37.3472Z" fill="white"/>
<path d="M31.5527 34.7544C31.5527 36.1899 30.3809 37.3472 28.96 37.3472C27.5244 37.3472 26.3672 36.1753 26.3672 34.7544C26.3672 33.3335 27.5244 32.1616 28.96 32.1616C30.3955 32.1616 31.5527 33.3188 31.5527 34.7544Z" fill="black"/>
<path d="M40.0918 34.7544C40.0918 36.1899 38.9346 37.3472 37.499 37.3472C36.0635 37.3472 34.9062 36.1753 34.9062 34.7544C34.9062 33.3335 36.0635 32.1616 37.499 32.1616C38.9346 32.1616 40.0918 33.3188 40.0918 34.7544Z" fill="black"/>
<path d="M48.6309 34.7544C48.6309 36.1899 47.459 37.3472 46.0381 37.3472C44.6025 37.3472 43.4453 36.1753 43.4453 34.7544C43.4453 33.3335 44.6025 32.1616 46.0381 32.1616C47.459 32.1616 48.6309 33.3188 48.6309 34.7544Z" fill="black"/>
</g>
</g>
<defs>
<clipPath id="clip0_2_1067">
<rect width="75" height="75" fill="white" transform="translate(0 0.77002)"/>
</clipPath>
<clipPath id="clip1_2_1067">
<rect width="75" height="75" fill="white" transform="translate(0 0.77002)"/>
</clipPath>
</defs>
</svg>
