<svg width="16" height="16" viewBox="0 0 16 16" fill="none" xmlns="http://www.w3.org/2000/svg">
<path d="M12.666 7.33332H8.66602V3.33332C8.66602 3.15651 8.59578 2.98694 8.47075 2.86192C8.34573 2.73689 8.17616 2.66666 7.99935 2.66666C7.82254 2.66666 7.65297 2.73689 7.52794 2.86192C7.40292 2.98694 7.33268 3.15651 7.33268 3.33332V7.33332H3.33268C3.15587 7.33332 2.9863 7.40356 2.86128 7.52858C2.73625 7.65361 2.66602 7.82318 2.66602 7.99999C2.66602 8.1768 2.73625 8.34637 2.86128 8.47139C2.9863 8.59642 3.15587 8.66666 3.33268 8.66666H7.33268V12.6667C7.33268 12.8435 7.40292 13.013 7.52794 13.1381C7.65297 13.2631 7.82254 13.3333 7.99935 13.3333C8.17616 13.3333 8.34573 13.2631 8.47075 13.1381C8.59578 13.013 8.66602 12.8435 8.66602 12.6667V8.66666H12.666C12.8428 8.66666 13.0124 8.59642 13.1374 8.47139C13.2624 8.34637 13.3327 8.1768 13.3327 7.99999C13.3327 7.82318 13.2624 7.65361 13.1374 7.52858C13.0124 7.40356 12.8428 7.33332 12.666 7.33332Z" fill="black"/>
</svg>
