<svg width="75" height="76" viewBox="0 0 75 76" fill="none" xmlns="http://www.w3.org/2000/svg">
<g clip-path="url(#clip0_2_1047)">
<g clip-path="url(#clip1_2_1047)">
<g clip-path="url(#clip2_2_1047)">
<path d="M12.5547 43.0894H27.9648L42.9062 49.271C45.5137 50.355 46.7441 53.3579 45.6455 55.9653L45.6016 56.0825C44.4883 58.7046 41.5293 59.9644 38.8926 58.9536C34.6592 57.313 29.0928 55.189 29.0928 55.189L43.4043 60.6968C46.4219 61.854 49.7178 62.0884 52.8672 61.3706L67.5303 58.0161C70.2109 57.4009 72.8916 59.1147 73.4482 61.8101C73.9902 64.3882 72.3936 66.937 69.8447 67.5815L52.3545 72.0347C49.0586 72.8696 45.5723 72.6499 42.4082 71.4194L19.835 62.5571H12.5547V43.0894Z" fill="black"/>
<path d="M12.5547 43.0894H27.9648L42.9062 49.271C45.5137 50.355 46.7441 53.3579 45.6455 55.9653L45.6016 56.0825C44.4883 58.7046 41.5293 59.9644 38.8926 58.9536C34.6592 57.313 29.0928 55.189 29.0928 55.189L43.4043 60.6968C46.4219 61.854 49.7178 62.0884 52.8672 61.3706L67.5303 58.0161C70.2109 57.4009 72.8916 59.1147 73.4482 61.8101C73.9902 64.3882 72.3936 66.937 69.8447 67.5815L52.3545 72.0347C49.0586 72.8696 45.5723 72.6499 42.4082 71.4194L19.835 62.5571H12.5547V43.0894Z" fill="white"/>
<path d="M1.46484 39.6323H12.5537V65.3843H1.46484V39.6323Z" fill="#F58220"/>
<path d="M31.8018 27.1226V44.686L27.9639 43.0894H18.75V27.1226H31.8018Z" fill="#F58220"/>
<path d="M44.8525 17.5571V50.7065C44.3398 50.0913 43.6807 49.5933 42.8896 49.271L31.8008 44.686V17.5132L44.8525 17.5571Z" fill="#F58220"/>
<path d="M57.9033 34.6665V60.1841L52.8496 61.3413C50.1982 61.9419 47.4443 61.8833 44.8516 61.1509V57.313C45.1445 56.9468 45.3936 56.5366 45.584 56.0825L45.6279 55.9653C46.4043 54.1489 46.0381 52.1421 44.8516 50.7212V34.6665H57.9033Z" fill="#F58220"/>
<path d="M64.9941 20.9556C64.9941 22.1714 63.998 23.1675 62.7822 23.1675C61.5664 23.1675 60.5703 22.1714 60.5703 20.9556C60.5703 19.7397 61.5664 18.7437 62.7822 18.7437C63.998 18.7437 64.9941 19.7397 64.9941 20.9556Z" fill="white"/>
<path d="M56.8652 10.3501C56.8652 11.5659 55.8691 12.562 54.6533 12.562C53.4375 12.562 52.4414 11.5659 52.4414 10.3501C52.4414 9.13428 53.4375 8.13818 54.6533 8.13818C55.8691 8.13818 56.8652 9.11963 56.8652 10.3501Z" fill="white"/>
<path d="M74.8682 61.4878C74.5166 59.7886 73.5205 58.353 72.0703 57.4155C70.6201 56.478 68.877 56.1851 67.1924 56.5659L59.3701 58.353V55.1597C60.9375 53.6802 62.5635 51.7612 63.7354 49.9888C65.7715 46.8979 67.207 43.4995 68.0127 39.9106C68.9648 35.6333 68.9941 31.0923 68.0713 26.8003C67.8955 26.0093 67.1191 25.5112 66.3281 25.6724C65.5371 25.8481 65.0391 26.6245 65.2002 27.4155C66.0352 31.2974 66.0205 35.3989 65.1416 39.2808C64.4092 42.5327 63.1055 45.5942 61.2744 48.3921C60.7324 49.2271 60.0732 50.0913 59.3555 50.9116V34.6665C59.3555 33.8608 58.6963 33.2017 57.8906 33.2017H46.3037V17.5571C46.3037 16.7515 45.6445 16.0923 44.8389 16.0923L31.7871 16.0483C31.4062 16.0483 31.0254 16.1948 30.7471 16.4731C30.4688 16.7515 30.3223 17.1177 30.3223 17.5132V25.6577H18.75C17.9443 25.6577 17.2852 26.3169 17.2852 27.1226V41.6245H14.0186V39.6323C14.0186 38.8267 13.3594 38.1675 12.5537 38.1675H11.0449C10.7959 36.7612 10.6348 35.3257 10.6055 33.9048C10.5176 30.4331 11.0742 27.0347 12.2461 23.812C12.5244 23.0649 12.832 22.3032 13.1689 21.5854C13.5059 20.853 13.1982 19.9741 12.4658 19.6372C11.7334 19.3003 10.8545 19.6079 10.5176 20.3403C10.1367 21.146 9.7998 21.981 9.49219 22.8159C8.20312 26.3901 7.58789 30.1548 7.67578 33.9927C7.70508 35.3989 7.85156 36.8052 8.07129 38.1821H1.46484C0.65918 38.1821 0 38.8413 0 39.647V65.3989C0 66.2046 0.65918 66.8638 1.46484 66.8638H12.5537C13.3594 66.8638 14.0186 66.2046 14.0186 65.3989V64.0073H19.5264L41.8506 72.7671C43.9307 73.5874 46.1133 73.9976 48.3105 73.9976C49.7754 73.9976 51.2402 73.8218 52.6904 73.4409L70.1807 68.9878C73.5059 68.1382 75.5566 64.8423 74.8682 61.4878ZM56.4404 36.1313V59.0269L52.5293 59.9204C52.1045 60.0229 51.6797 60.0962 51.2549 60.1548C49.6289 60.3745 47.959 60.3306 46.3477 60.0083H46.333V57.7817C47.4463 56.1118 47.8271 54.0024 47.2412 52.0688C47.0801 51.5269 46.8457 51.0142 46.5527 50.5308C46.4795 50.4282 46.4209 50.311 46.3477 50.2085V36.1167L56.4404 36.1313ZM33.2666 18.9927L43.3887 19.022V47.894L37.7344 45.5503L33.2666 43.7046V18.9927ZM20.2148 28.5874H30.3369V42.4888L28.5205 41.7417C28.3447 41.6685 28.1543 41.6245 27.9639 41.6245H20.2148V28.5874ZM11.0889 63.9194H2.92969V41.0972H9.84375C9.84375 41.0972 9.84375 41.0972 9.8584 41.0972C9.8584 41.0972 9.8584 41.0972 9.87305 41.0972H11.1035L11.0889 63.9194ZM69.4629 66.1314L51.9727 70.5845C48.9551 71.3462 45.8203 71.1558 42.9199 70.0132L20.3467 61.1509C20.1709 61.0776 19.9951 61.0483 19.8047 61.0483H14.0186V44.5542H27.6709L37.1484 48.48L42.334 50.6333C44.165 51.395 45.0439 53.5483 44.2969 55.3794C44.1504 55.7456 43.96 56.0972 43.7109 56.4048C42.7881 57.562 41.2793 58.0747 39.873 57.7231C39.8584 57.7231 39.8438 57.7231 39.8438 57.7085C39.7559 57.6939 39.668 57.6646 39.5947 57.6353L29.7363 53.8413C29.6631 53.812 29.6191 53.7974 29.6191 53.7974C28.8574 53.5044 28.0225 53.8853 27.7295 54.6323C27.4365 55.394 27.8174 56.229 28.5645 56.522C28.5645 56.522 34.1162 58.6606 38.3643 60.2866C38.4521 60.3159 38.54 60.3452 38.6133 60.3745L41.8652 61.6196C42.8467 62.0005 43.8281 62.3813 44.8535 62.6304C46.5967 63.0698 48.3984 63.2456 50.1855 63.1577C51.1963 63.0991 52.207 62.9673 53.1885 62.7329L58.2422 61.5757H58.2568L67.8516 59.3784C68.7598 59.1733 69.6973 59.3345 70.4883 59.8325C71.2793 60.3452 71.8213 61.1216 72.0117 62.0444C72.3779 63.9048 71.2646 65.6772 69.4629 66.1314Z" fill="black"/>
<path d="M18.7354 13.0892C19.087 13.0892 19.4385 12.9574 19.7168 12.7084C22.3243 10.35 25.459 8.46032 28.7403 7.25914C32.3145 5.95543 36.2256 5.39879 40.0489 5.64782C42.7881 5.8236 45.4834 6.40954 48.0323 7.39098C48.794 7.68395 49.629 7.30309 49.9219 6.54137C50.2149 5.77965 49.834 4.94469 49.0723 4.65172C46.2452 3.56774 43.2715 2.92321 40.2393 2.73278C36.0059 2.45446 31.6846 3.06969 27.7295 4.50524C24.0821 5.83825 20.6397 7.91832 17.7393 10.5257C17.1387 11.0677 17.0948 11.9906 17.6368 12.5912C17.9297 12.9281 18.3252 13.0892 18.7354 13.0892Z" fill="black"/>
<path d="M51.9872 23.5481C52.2655 23.7825 52.6024 23.8997 52.954 23.8997C53.3641 23.8997 53.7743 23.7239 54.0673 23.4016L66.1229 9.52957C66.6503 8.91434 66.5917 7.99149 65.9764 7.46414C65.3612 6.9368 64.4384 6.99539 63.911 7.61063L51.8554 21.4827C51.3134 22.0979 51.372 23.0208 51.9872 23.5481Z" fill="black"/>
<path d="M62.7822 17.2788C60.7607 17.2788 59.1055 18.9341 59.1055 20.9556C59.1055 22.9771 60.7607 24.6323 62.7822 24.6323C64.8037 24.6323 66.459 22.9771 66.459 20.9556C66.459 18.9341 64.8184 17.2788 62.7822 17.2788ZM62.7822 21.7026C62.3721 21.7026 62.0352 21.3657 62.0352 20.9556C62.0352 20.5454 62.3721 20.2085 62.7822 20.2085C63.1924 20.2085 63.5293 20.5454 63.5293 20.9556C63.5293 21.3804 63.1924 21.7026 62.7822 21.7026Z" fill="black"/>
<path d="M54.6533 14.0269C56.6748 14.0269 58.3301 12.3716 58.3301 10.3501C58.3301 8.32861 56.6748 6.67334 54.6533 6.67334C52.6318 6.67334 50.9766 8.31397 50.9766 10.3501C50.9766 12.3862 52.6172 14.0269 54.6533 14.0269ZM54.6533 9.60303C55.0635 9.60303 55.4004 9.93994 55.4004 10.3501C55.4004 10.7603 55.0635 11.0972 54.6533 11.0972C54.2432 11.0972 53.9062 10.7603 53.9062 10.3501C53.9062 9.93994 54.2432 9.60303 54.6533 9.60303Z" fill="black"/>
<path d="M13.522 16.5316C13.7563 17.0882 14.3276 17.4691 14.9429 17.4398C15.5434 17.4105 16.0708 17.0003 16.2612 16.429C16.4516 15.8431 16.2466 15.1839 15.7632 14.8177C15.2651 14.4369 14.5766 14.4222 14.0639 14.7591C13.4927 15.14 13.2583 15.9017 13.522 16.5316Z" fill="black"/>
</g>
</g>
</g>
<defs>
<clipPath id="clip0_2_1047">
<rect width="75" height="75" fill="white" transform="translate(0 0.77002)"/>
</clipPath>
<clipPath id="clip1_2_1047">
<rect width="75" height="75" fill="white" transform="translate(0 0.77002)"/>
</clipPath>
<clipPath id="clip2_2_1047">
<rect width="75" height="75" fill="white" transform="translate(0 0.77002)"/>
</clipPath>
</defs>
</svg>
