<svg width="17" height="17" viewBox="0 0 17 17" fill="none" xmlns="http://www.w3.org/2000/svg">
<path d="M16.4102 8.78119C16.4102 10.9029 15.5673 12.9378 14.067 14.438C12.5667 15.9383 10.5319 16.7812 8.41016 16.7812C6.28842 16.7812 4.25359 15.9383 2.7533 14.438C1.25301 12.9378 0.410156 10.9029 0.410156 8.78119C0.410156 6.65946 1.25301 4.62463 2.7533 3.12433C4.25359 1.62404 6.28842 0.781189 8.41016 0.781189C10.5319 0.781189 12.5667 1.62404 14.067 3.12433C15.5673 4.62463 16.4102 6.65946 16.4102 8.78119ZM7.20016 5.87419C7.12539 5.82096 7.03742 5.78933 6.94588 5.78277C6.85433 5.77622 6.76275 5.79498 6.68116 5.83702C6.59958 5.87905 6.53113 5.94273 6.48333 6.02107C6.43553 6.09942 6.41021 6.18941 6.41016 6.28119V11.2812C6.41021 11.373 6.43553 11.463 6.48333 11.5413C6.53113 11.6197 6.59958 11.6833 6.68116 11.7254C6.76275 11.7674 6.85433 11.7862 6.94588 11.7796C7.03742 11.773 7.12539 11.7414 7.20016 11.6882L10.7002 9.18819C10.765 9.14194 10.8178 9.08087 10.8543 9.01008C10.8907 8.93929 10.9097 8.86082 10.9097 8.78119C10.9097 8.70156 10.8907 8.62309 10.8543 8.5523C10.8178 8.4815 10.765 8.42044 10.7002 8.37419L7.20016 5.87419Z" fill="#6C63FF"/>
</svg>
