<svg width="831" height="655" viewBox="0 0 831 655" fill="none" xmlns="http://www.w3.org/2000/svg">
<g clip-path="url(#clip0_28_4570)">
<path d="M217.961 295.928C216.132 295.928 214.645 297.415 214.645 299.244V325.769C214.645 327.598 216.132 329.085 217.961 329.085C219.791 329.085 221.278 327.598 221.278 325.769V299.244C221.278 297.415 219.791 295.928 217.961 295.928Z" fill="#3F3D56"/>
<path d="M595.234 0.77002H296.878C263.045 0.77002 235.617 28.188 235.617 62.0098V589.043C235.617 622.864 263.045 650.282 296.878 650.282H595.234C629.068 650.282 656.495 622.864 656.495 589.042V62.0098C656.495 28.188 629.068 0.77002 595.234 0.77002Z" fill="white"/>
<path d="M595.236 654.77H296.88C262.301 654.77 234.168 626.648 234.168 592.081V65.0484C234.168 30.4813 262.301 2.3584 296.88 2.3584H595.236C629.815 2.3584 657.948 30.4813 657.948 65.0484V592.081C657.948 626.648 629.815 654.77 595.236 654.77ZM296.88 5.25871C263.9 5.25871 237.069 32.0801 237.069 65.0484V592.081C237.069 625.049 263.9 651.87 296.88 651.87H595.236C628.216 651.87 655.046 625.049 655.046 592.081V65.0484C655.046 32.0801 628.216 5.25871 595.236 5.25871H296.88Z" fill="#3F3D56"/>
<path d="M616.847 129.19H496.924C491.838 129.19 487.699 125.053 487.699 119.969C487.699 114.884 491.838 110.747 496.924 110.747H616.847C621.933 110.747 626.072 114.884 626.072 119.969C626.072 125.053 621.933 129.19 616.847 129.19Z" fill="#E6E6E6"/>
<path d="M504.342 201.709H387.772C384.833 201.709 382.441 199.318 382.441 196.38C382.441 193.443 384.833 191.053 387.772 191.053H504.342C507.281 191.053 509.671 193.443 509.671 196.38C509.671 199.318 507.281 201.709 504.342 201.709Z" fill="#6C63FF"/>
<path d="M339.717 23.6145H272.892C272.719 23.6145 272.578 23.7552 272.578 23.9287V31.9451C272.578 32.1186 272.719 32.2593 272.892 32.2593H339.717C339.89 32.2593 340.031 32.1186 340.031 31.9451V23.9287C340.031 23.7552 339.89 23.6145 339.717 23.6145Z" fill="#E6E6E6"/>
<path d="M563.754 32.2591C567.575 32.2591 570.672 29.1628 570.672 25.3433C570.672 21.5238 567.575 18.4275 563.754 18.4275C559.933 18.4275 556.836 21.5238 556.836 25.3433C556.836 29.1628 559.933 32.2591 563.754 32.2591Z" fill="#E6E6E6"/>
<path d="M582.778 32.2591C586.598 32.2591 589.696 29.1628 589.696 25.3433C589.696 21.5238 586.598 18.4275 582.778 18.4275C578.957 18.4275 575.859 21.5238 575.859 25.3433C575.859 29.1628 578.957 32.2591 582.778 32.2591Z" fill="#E6E6E6"/>
<path d="M601.805 32.2591C605.626 32.2591 608.723 29.1628 608.723 25.3433C608.723 21.5238 605.626 18.4275 601.805 18.4275C597.984 18.4275 594.887 21.5238 594.887 25.3433C594.887 29.1628 597.984 32.2591 601.805 32.2591Z" fill="#E6E6E6"/>
<path d="M296.152 230.229C296.152 231.186 296.921 231.955 297.879 231.955H594.234C595.191 231.955 595.96 231.186 595.96 230.229C595.96 229.272 595.191 228.503 594.234 228.503H297.879C296.921 228.503 296.152 229.272 296.152 230.229Z" fill="#3F3D56"/>
<path d="M531.191 474.301C531.191 475.258 531.96 476.026 532.918 476.026H829.273C830.23 476.026 830.999 475.258 830.999 474.301C830.999 473.344 830.23 472.575 829.273 472.575H532.918C531.96 472.575 531.191 473.344 531.191 474.301Z" fill="#3F3D56"/>
<path d="M565.815 365.863H387.967C385.028 365.863 382.637 363.472 382.637 360.535C382.637 357.597 385.028 355.208 387.967 355.208H565.815C568.754 355.208 571.144 357.597 571.144 360.535C571.144 363.473 568.754 365.863 565.815 365.863Z" fill="#6C63FF"/>
<path d="M334.025 372.928C341.235 372.928 347.081 367.085 347.081 359.877C347.081 352.668 341.235 346.825 334.025 346.825C326.814 346.825 320.969 352.668 320.969 359.877C320.969 367.085 326.814 372.928 334.025 372.928Z" fill="#6C63FF"/>
<path d="M332.574 381.629V378.728C343.373 378.728 352.158 369.946 352.158 359.151C352.158 348.357 343.373 339.574 332.574 339.574V336.674C344.973 336.674 355.059 346.757 355.059 359.151C355.059 371.546 344.973 381.629 332.574 381.629Z" fill="#3F3D56"/>
<path d="M177.07 307.242C182.396 301.824 189.509 300.179 192.958 303.568C196.406 306.957 194.884 314.094 189.556 319.513C187.457 321.707 184.863 323.367 181.992 324.353L159.136 347.024L148.723 336.076L172.359 314.889C173.296 312 174.912 309.378 177.07 307.242Z" fill="#FFB6B6"/>
<path d="M103.978 288.528L127.941 341.67L166.207 320.965L179.901 328.23C179.901 328.23 148.62 380.508 127.202 374.557C105.784 368.606 67.7509 314.645 74.6034 297.991C81.4561 281.337 103.978 288.528 103.978 288.528Z" fill="#E6E6E6"/>
<path d="M0 652.991C0 653.66 0.536974 654.196 1.20565 654.196H740.05C740.718 654.196 741.255 653.66 741.255 652.991C741.255 652.323 740.718 651.786 740.05 651.786H1.20565C0.536974 651.786 0 652.323 0 652.991Z" fill="#3F3D56"/>
<path d="M221.183 393.188C257.495 393.188 286.932 364.381 286.932 328.846C286.932 293.311 257.495 264.505 221.183 264.505C184.871 264.505 155.434 293.311 155.434 328.846C155.434 364.381 184.871 393.188 221.183 393.188Z" fill="#6C63FF"/>
<path d="M93.4723 642.697L110.945 642.695L119.257 575.323L93.4688 575.325L93.4723 642.697Z" fill="#FFB6B6"/>
<path d="M153.336 642.301C153.88 643.217 154.167 646.173 154.167 647.238C154.167 650.512 151.512 653.166 148.237 653.166H94.1254C91.891 653.166 90.0796 651.356 90.0796 649.122V646.87C90.0796 646.87 87.4028 640.102 92.9139 631.759C92.9139 631.759 99.7636 638.291 109.999 628.06L113.017 622.594L134.865 638.567L146.975 640.057C149.624 640.383 151.973 640.006 153.336 642.301Z" fill="#2F2E41"/>
<path d="M106.693 291.938L107.047 268.38L92.5138 259.324L76.7109 278.647L106.693 291.938Z" fill="#FFB6B6"/>
<path opacity="0.1" d="M106.691 291.938L107.632 268.967L92.5117 259.324L97.6488 287.752L106.691 291.938Z" fill="black"/>
<path d="M141.986 447.72L117.909 611.503H87.7013L91.7181 518.011L93.8321 468.853L87.7013 445.454C87.7013 445.454 84.9061 440.253 82.5512 433.948C79.8969 426.833 77.8004 418.303 80.9128 414.259C82.0579 412.767 85.0353 411.664 89.0813 410.842C91.5536 410.337 94.4311 409.944 97.5376 409.639C115.402 407.872 140.812 408.975 140.812 408.975L141.458 430.285L141.816 442.184L141.986 447.72Z" fill="#2F2E41"/>
<path d="M62.6914 634.687L79.9787 637.226L98.0055 571.778L72.4912 568.031L62.6914 634.687Z" fill="#FFB6B6"/>
<path d="M121.975 643C122.38 643.985 122.234 646.951 122.079 648.005C121.603 651.244 118.59 653.484 115.349 653.008L61.8132 645.14C59.6027 644.815 58.074 642.76 58.399 640.55L58.7267 638.322C58.7267 638.322 57.0632 631.237 63.7297 623.784C63.7297 623.784 69.5559 631.243 81.1709 622.608L84.9524 617.64L104.244 636.619L116.008 639.855C118.582 640.562 120.961 640.531 121.975 643Z" fill="#2F2E41"/>
<path d="M142.365 420.405L139.063 448.835L121.053 508.745L91.4066 607.377L61.5234 602.987L88.3432 462.747L85.6877 438.699C85.6877 438.699 84.8228 436.309 83.8315 432.81C81.8637 425.886 79.3957 414.612 82.1109 408.861C82.4776 408.079 82.9378 407.401 83.5072 406.852C84.5751 405.817 86.7456 405.188 89.6537 404.854C101.809 403.481 126.841 407.409 137.98 409.337L142.365 420.405Z" fill="#2F2E41"/>
<path d="M80.0301 273.663L109.392 287.752C109.392 287.752 140.516 379.917 140.516 384.613C140.516 389.309 149.325 392.244 144.039 397.528C138.754 402.811 153.877 407.286 145.728 411.506C137.58 415.726 86.7487 438.81 81.0965 436.728C65.5075 430.987 81.7571 409.89 81.7571 409.89C81.7571 409.89 70.0469 400.463 71.8087 395.767C73.5704 391.07 61.2383 301.254 61.2383 301.254L80.0301 273.663Z" fill="#E6E6E6"/>
<path d="M169.501 354.875C176.788 352.723 183.805 354.737 185.175 359.373C186.544 364.009 181.747 369.51 174.457 371.662C171.557 372.562 168.483 372.754 165.493 372.223L134.502 380.951L130.715 366.326L161.668 359.274C163.89 357.203 166.576 355.695 169.501 354.875Z" fill="#FFB6B6"/>
<path d="M114.686 303.043L109.828 361.132L153.337 361.599L161.781 374.597C161.781 374.597 109.046 405.121 93.2112 389.524C77.3763 373.927 70.3306 308.295 84.4092 297.06C98.4878 285.826 114.686 303.043 114.686 303.043Z" fill="#E6E6E6"/>
<path d="M106.079 275.215C119.97 275.215 131.231 263.957 131.231 250.071C131.231 236.184 119.97 224.927 106.079 224.927C92.1871 224.927 80.9258 236.184 80.9258 250.071C80.9258 263.957 92.1871 275.215 106.079 275.215Z" fill="#FFB6B6"/>
<path d="M92.5115 250.169C92.5115 250.169 96.4725 243.636 98.6511 240.27C100.83 236.905 100.83 231.974 100.83 231.974C100.83 231.974 121.031 231.559 127.765 237.3C134.499 243.042 139.252 221.858 132.716 214.532C132.716 214.532 129.944 217.7 130.538 218.888L131.132 220.076C131.132 220.076 127.765 206.613 118.06 204.039C118.06 204.039 112.662 206.826 114.173 208.403C115.684 209.979 102.612 198.891 98.6511 205.425C98.6511 205.425 88.9465 205.227 90.1348 208.791L89.5406 210.969C89.5406 210.969 81.2224 208.395 80.6282 214.532C80.6282 214.532 83.599 214.532 85.1835 216.116C86.7679 217.7 79.4399 222.254 79.4399 222.254C79.4399 222.254 70.9236 245.616 82.4107 255.119C82.4107 255.119 82.5097 243.735 87.065 246.507C91.6202 249.279 92.5115 250.169 92.5115 250.169Z" fill="#2F2E41"/>
<path d="M116.45 265.018L115.547 267.394L122.32 267.592L122.772 265.414L116.45 265.018Z" fill="#2F2E41"/>
<path d="M123.223 256.505C123.223 256.505 113.063 253.733 106.967 262.049L105.613 263.632C105.613 263.632 92.743 249.18 93.8719 243.834L91.1625 244.032L88.4531 257.891C88.4531 257.891 97.0328 272.74 108.999 273.334C108.999 273.334 120.514 276.105 122.998 271.354C125.481 266.602 129.757 259.596 129.757 259.596L123.223 256.505ZM121.375 269.77H114.644C113.063 269.77 108.999 264.028 108.999 264.028C111.257 260.465 118.03 260.267 118.03 260.267H125.386L125.933 262.445L121.375 269.77Z" fill="#2F2E41"/>
<path d="M613.532 644.61L602.488 642.224L606.438 598.505L622.738 602.027L613.532 644.61Z" fill="#A0616A"/>
<path d="M575.748 636.187C575.279 636.692 574.694 638.521 574.548 639.195C574.101 641.264 575.417 643.304 577.487 643.751L611.689 651.138C613.101 651.443 614.493 650.546 614.798 649.134L615.106 647.711C615.106 647.711 617.723 643.798 615.379 637.773C615.379 637.773 610.157 640.967 605.086 633.102L603.925 629.236L587.933 636.349L580.075 635.638C578.356 635.482 576.923 634.923 575.748 636.187Z" fill="#2F2E41"/>
<path d="M593.78 641.266L584.566 634.728L605.406 596.089L619.005 605.738L593.78 641.266Z" fill="#A0616A"/>
<path d="M562.358 618.66C561.728 618.94 560.47 620.391 560.071 620.953C558.845 622.679 559.252 625.072 560.979 626.298L589.514 646.542C590.693 647.378 592.326 647.101 593.162 645.923L594.005 644.735C594.005 644.735 597.951 642.167 598.168 635.706C598.168 635.706 592.11 636.588 590.543 627.364L590.998 623.352L573.497 623.601L566.553 619.857C565.033 619.037 563.936 617.96 562.358 618.66Z" fill="#2F2E41"/>
<path d="M726.511 425.118C726.511 425.118 743.693 448.47 709.33 474.723L639.172 452.313L664.228 400.071L686.421 387.905L726.511 425.118Z" fill="#2F2E41"/>
<path d="M639.171 452.313L611.967 505.271L594.785 615.48L616.262 616.911L637.739 512.427L675.682 455.891L649.193 443.725" fill="#2F2E41"/>
<path d="M709.33 458.089V474.723L660.649 528.171C660.649 528.171 660.649 568.248 642.036 586.854L620.559 619.774L601.945 609.755L629.149 513.858L677.83 450.882L709.33 458.089Z" fill="#2F2E41"/>
<path d="M674.738 293.173L682.121 328.124L710.265 321.248C710.265 321.248 696.353 292.323 699.121 280.863L674.738 293.173Z" fill="#A0616A"/>
<path opacity="0.1" d="M674.738 293.173L682.121 328.124L710.265 321.248C710.265 321.248 696.353 292.323 699.121 280.863L674.738 293.173Z" fill="black"/>
<path d="M701.457 298.449L679.98 308.468C679.98 308.468 668.932 315.219 668.729 319.715C668.526 324.212 669.958 345.682 669.958 345.682C669.958 345.682 661.367 354.269 667.094 371.445L664.23 400.071L728.661 434.422L722.934 374.307L725.798 318.487L701.457 298.449Z" fill="#E6E6E6"/>
<path d="M720.733 461.332C718.218 467.1 713.203 470.478 709.532 468.877C705.86 467.277 704.923 461.305 707.439 455.536C708.413 453.218 709.928 451.166 711.857 449.553L722.82 425.25L734.119 430.636L722.112 454.022C722.243 456.534 721.77 459.041 720.733 461.332Z" fill="#A0616A"/>
<path d="M709.328 322.065C709.328 322.065 725.078 312.046 730.805 323.496C736.532 334.947 749.418 393.63 749.418 393.63L730.805 449.45L713.624 442.294L728.657 382.219L709.328 322.065Z" fill="#E6E6E6"/>
<path d="M628.61 452.322C624.147 456.758 618.239 458.052 615.416 455.212C612.592 452.372 613.922 446.475 618.388 442.038C620.147 440.241 622.311 438.892 624.699 438.103L643.848 419.547L652.367 428.715L632.586 446.034C631.782 448.418 630.419 450.574 628.61 452.322Z" fill="#A0616A"/>
<path d="M669.334 318.651C669.334 318.651 696.793 317.528 697.897 330.282C699.002 343.037 680.231 399.946 680.231 399.946L642.355 444.986L629.02 432.005L665.136 381.692L669.334 318.651Z" fill="#E6E6E6"/>
<path d="M748.615 469.8L573.037 441.491C570.135 441.023 568.155 438.282 568.623 435.382C569.091 432.482 571.833 430.504 574.734 430.971L750.313 459.281C753.214 459.749 755.193 462.488 754.725 465.388C754.257 468.289 751.517 470.268 748.615 469.8Z" fill="#6C63FF"/>
<path d="M520.736 440.046C527.946 440.046 533.792 434.202 533.792 426.994C533.792 419.786 527.946 413.943 520.736 413.943C513.525 413.943 507.68 419.786 507.68 426.994C507.68 434.202 513.525 440.046 520.736 440.046Z" fill="#6C63FF"/>
<path d="M515.84 448.238L516.302 445.375C526.963 447.094 537.035 439.822 538.754 429.165C540.474 418.508 533.199 408.439 522.539 406.72L523.001 403.857C535.241 405.831 543.593 417.391 541.619 429.627C539.644 441.863 528.08 450.212 515.84 448.238Z" fill="#3F3D56"/>
<path d="M677.553 300.602C689.496 300.602 699.177 290.924 699.177 278.986C699.177 267.048 689.496 257.37 677.553 257.37C665.611 257.37 655.93 267.048 655.93 278.986C655.93 290.924 665.611 300.602 677.553 300.602Z" fill="#A0616A"/>
<path d="M690.332 278.986C690.332 278.986 676.833 266.737 668.184 271.06C659.534 275.383 655.209 278.265 655.209 278.265C655.209 278.265 648.001 267.457 658.813 258.09C658.813 258.09 636.807 248.479 652.856 233.47C668.904 218.46 683.32 224.225 683.32 224.225C683.32 224.225 702.782 232.871 689.087 250.164C689.087 250.164 709.038 262.813 698.702 283.509C698.702 283.509 697.736 270.339 694.853 273.942C691.97 277.545 690.332 278.986 690.332 278.986Z" fill="#2F2E41"/>
<path d="M243.772 353.071C235.506 332.754 227.239 312.437 218.973 292.12C217.831 289.314 214.255 289.214 213.141 292.12C204.973 313.421 199.635 335.647 197.069 358.309C196.632 362.169 202.684 362.138 203.118 358.309C204.122 349.441 205.613 340.639 207.526 331.931C214.338 332.288 221.206 331.525 227.779 329.705C231.166 338.03 234.553 346.354 237.94 354.678C239.387 358.235 245.241 356.68 243.772 353.071ZM208.898 325.954C210.935 317.618 213.378 309.38 216.212 301.276L225.482 324.059C220.052 325.484 214.499 326.118 208.898 325.954Z" fill="white"/>
<path d="M255.43 358.152C258.787 358.152 261.509 355.432 261.509 352.076C261.509 348.72 258.787 346 255.43 346C252.073 346 249.352 348.72 249.352 352.076C249.352 355.432 252.073 358.152 255.43 358.152Z" fill="white"/>
<path d="M191.606 304.477C194.963 304.477 197.685 301.756 197.685 298.4C197.685 295.045 194.963 292.324 191.606 292.324C188.249 292.324 185.527 295.045 185.527 298.4C185.527 301.756 188.249 304.477 191.606 304.477Z" fill="white"/>
</g>
<defs>
<clipPath id="clip0_28_4570">
<rect width="831" height="654" fill="white" transform="translate(0 0.77002)"/>
</clipPath>
</defs>
</svg>
