<svg width="828" height="783" viewBox="0 0 828 783" fill="none" xmlns="http://www.w3.org/2000/svg">
<g clip-path="url(#clip0_5_1043)">
<path d="M828.002 778.648H269.254V781.055H828.002V778.648Z" fill="#3F3D56"/>
<path d="M723.724 369.198C724.8 370.46 725.598 371.935 726.067 373.525C726.536 375.115 726.665 376.787 726.447 378.43C726.228 380.074 725.667 381.653 724.799 383.066C723.93 384.479 722.775 385.694 721.407 386.633L663.581 426.3L638.118 443.261C636.671 444.224 634.918 444.616 633.199 444.359C631.48 444.101 629.918 443.215 628.817 441.87C628.175 441.087 627.711 440.173 627.457 439.193C627.204 438.212 627.166 437.189 627.347 436.193C627.528 435.196 627.923 434.251 628.505 433.422C629.088 432.594 629.843 431.901 630.72 431.393L655.382 417.085L698.425 376.127L670.755 346.433L691.251 331.074L723.724 369.198Z" fill="#A0616A"/>
<path d="M587.746 742.695H573.601L565.199 625.967L601.068 624.943L587.746 742.695Z" fill="#A0616A"/>
<path d="M588.77 780.581C584.999 782.3 581.839 768.366 578.658 771.49C569.759 780.228 556.132 782.13 544.254 778.315L548.411 778.269C547.694 778.039 547.032 777.666 546.464 777.172C545.895 776.678 545.433 776.075 545.106 775.398C544.778 774.721 544.591 773.984 544.556 773.232C544.522 772.481 544.64 771.73 544.905 771.026C545.221 770.183 545.738 769.43 546.41 768.83C547.082 768.231 547.89 767.804 548.764 767.586L558.228 765.222L573.088 739.111L588.258 738.087C591.64 742.395 594 747.413 595.161 752.764C596.322 758.114 596.254 763.658 594.961 768.978C593.584 774.592 591.459 779.354 588.77 780.581Z" fill="#2F2E41"/>
<path d="M681.925 742.695H667.78L659.379 625.967L696.273 618.8L681.925 742.695Z" fill="#A0616A"/>
<path d="M682.95 780.581C679.178 782.301 676.019 768.366 672.838 771.49C663.939 780.228 650.312 782.13 638.434 778.316L642.591 778.269C641.874 778.039 641.211 777.666 640.643 777.172C640.075 776.679 639.613 776.075 639.285 775.398C638.957 774.721 638.771 773.984 638.736 773.233C638.702 772.481 638.82 771.731 639.084 771.026C639.401 770.183 639.917 769.43 640.59 768.831C641.262 768.231 642.07 767.804 642.944 767.586L652.408 765.222L667.268 739.112L683.462 737.064L683.871 737.732C687.002 742.773 689.021 748.424 689.792 754.307C690.564 760.189 690.071 766.169 688.346 771.846C686.999 776.158 685.166 779.57 682.95 780.581Z" fill="#2F2E41"/>
<path d="M697.965 333.715C684.957 335.523 675.952 342.641 672.284 356.839L648.374 312.731C646.956 309.928 646.597 306.708 647.362 303.662C648.127 300.615 649.965 297.946 652.539 296.144C655.272 294.231 658.633 293.434 661.934 293.917C665.235 294.4 668.226 296.126 670.295 298.741L697.965 333.715Z" fill="#6C63FF"/>
<path d="M723.021 613.68C664.886 639.38 605.39 642.542 544.703 625.967C566.864 540.091 593.031 462.44 592.87 398.654L652.309 393.534L661.461 408.031C683.174 442.425 698.162 480.621 705.63 520.595L723.021 613.68Z" fill="#2F2E41"/>
<path d="M625.662 266.567C642.642 266.567 656.407 252.814 656.407 235.849C656.407 218.884 642.642 205.131 625.662 205.131C608.683 205.131 594.918 218.884 594.918 235.849C594.918 252.814 608.683 266.567 625.662 266.567Z" fill="#A0616A"/>
<path d="M659.481 290.117L621.563 292.165L615.414 258.375L646.158 253.256L659.481 290.117Z" fill="#A0616A"/>
<path d="M655.383 398.654L613.842 399.823L592.87 402.75C582.575 368.773 573.908 334.873 594.919 306.5L619.515 281.926L656.408 280.902L656.897 281.181C662.756 284.535 667.297 289.783 669.771 296.06C672.245 302.338 672.505 309.27 670.509 315.715C661.353 345.441 655.472 373.511 655.383 398.654Z" fill="#6C63FF"/>
<path d="M591.842 493.88L589.265 529.066C589.127 530.951 588.312 532.722 586.971 534.054C585.629 535.386 583.851 536.188 581.964 536.314C580.876 536.387 579.786 536.232 578.762 535.86C577.737 535.488 576.802 534.906 576.015 534.153C575.228 533.4 574.607 532.491 574.191 531.484C573.775 530.478 573.574 529.396 573.6 528.307L574.42 493.88L600.041 396.606L601.066 337.218L629.76 336.194L627.711 404.798L591.842 493.88Z" fill="#A0616A"/>
<path d="M632.839 341.314C620.673 336.371 609.31 338.026 599.02 348.481L600.429 298.339C600.607 295.203 601.91 292.236 604.099 289.982C606.288 287.728 609.216 286.338 612.348 286.065C615.672 285.777 618.98 286.769 621.596 288.838C624.211 290.908 625.936 293.898 626.416 297.197L632.839 341.314Z" fill="#6C63FF"/>
<path d="M690.74 372.544H596.457C618.451 314.352 625.544 260.217 596.457 213.834C596.956 199.903 614.84 187.826 628.728 189.16C645.13 190.736 667.171 202.779 670.244 218.954L690.74 372.544Z" fill="#2F2E41"/>
<path d="M390.263 186.602H385.962V68.8956C385.962 59.9492 384.198 51.0904 380.772 42.825C377.345 34.5596 372.323 27.0495 365.991 20.7235C359.66 14.3974 352.143 9.37933 343.871 5.95571C335.598 2.53209 326.732 0.769993 317.778 0.77002H68.1845C59.2304 0.77 50.3639 2.53211 42.0914 5.95573C33.8189 9.37936 26.3023 14.3974 19.9708 20.7235C13.6392 27.0495 8.61681 34.5597 5.19022 42.8251C1.76363 51.0904 -9.88594e-06 59.9492 0 68.8956V714.644C-7.06138e-06 723.591 1.76363 732.45 5.19022 740.715C8.61681 748.98 13.6392 756.49 19.9708 762.816C26.3023 769.143 33.8189 774.161 42.0914 777.584C50.3639 781.008 59.2304 782.77 68.1845 782.77H317.778C326.732 782.77 335.598 781.008 343.871 777.584C352.143 774.161 359.66 769.143 365.991 762.817C372.323 756.49 377.345 748.98 380.772 740.715C384.198 732.45 385.962 723.591 385.962 714.644V270.388H390.263V186.602Z" fill="#3F3D56"/>
<path d="M320.527 18.4939H287.947C289.445 22.164 290.017 26.146 289.612 30.089C289.207 34.0319 287.838 37.815 285.626 41.1047C283.413 44.3945 280.424 47.0901 276.923 48.9541C273.422 50.818 269.516 51.7931 265.549 51.7934H122.56C118.593 51.7931 114.687 50.818 111.186 48.9541C107.685 47.0901 104.696 44.3946 102.483 41.1048C100.27 37.815 98.9012 34.032 98.4964 30.089C98.0916 26.146 98.6635 22.164 100.162 18.4939H69.7319C63.0451 18.4939 56.4237 19.8098 50.2459 22.3665C44.0681 24.9232 38.4548 28.6707 33.7265 33.3949C28.9982 38.1191 25.2475 43.7276 22.6885 49.9C20.1296 56.0725 18.8125 62.6882 18.8125 69.3692V714.171C18.8125 720.852 20.1296 727.467 22.6885 733.64C25.2474 739.812 28.9981 745.421 33.7264 750.145C38.4547 754.869 44.0681 758.617 50.2459 761.173C56.4237 763.73 63.0451 765.046 69.7319 765.046H320.527C327.214 765.046 333.835 763.73 340.013 761.173C346.191 758.617 351.804 754.869 356.533 750.145C361.261 745.421 365.012 739.812 367.57 733.64C370.129 727.467 371.446 720.852 371.446 714.171V69.3692C371.446 55.8762 366.082 42.9359 356.532 33.3949C346.983 23.8539 334.032 18.4939 320.527 18.4939Z" fill="white"/>
<path d="M327.408 119.217H62.8516V345.937H327.408V119.217Z" fill="#E6E6E6"/>
<path d="M141.358 393.215C152.049 393.215 160.716 384.556 160.716 373.874C160.716 363.192 152.049 354.533 141.358 354.533C130.667 354.533 122 363.192 122 373.874C122 384.556 130.667 393.215 141.358 393.215Z" fill="#6C63FF"/>
<path d="M151.037 372.262H142.972V364.204H139.745V372.262H131.68V375.486H139.745V383.545H142.972V375.486H151.037V372.262Z" fill="white"/>
<path d="M243.526 393.215C254.217 393.215 262.883 384.556 262.883 373.874C262.883 363.192 254.217 354.533 243.526 354.533C232.835 354.533 224.168 363.192 224.168 373.874C224.168 384.556 232.835 393.215 243.526 393.215Z" fill="#6C63FF"/>
<path d="M253.203 375.486V372.262H233.845V375.486H253.203Z" fill="white"/>
<path d="M204.999 147.492H184.092C183.357 147.492 182.652 147.784 182.132 148.303C181.612 148.822 181.32 149.527 181.32 150.261V159.43C181.32 160.164 181.612 160.869 182.132 161.388C182.652 161.908 183.357 162.199 184.092 162.199H187.557V175.937H201.534V162.199H204.999C205.734 162.199 206.439 161.908 206.959 161.388C207.478 160.869 207.77 160.164 207.77 159.43V150.261C207.77 149.527 207.478 148.822 206.959 148.303C206.439 147.784 205.734 147.492 204.999 147.492Z" fill="#6C63FF"/>
<path d="M225.938 231.403C213.135 212.684 206.589 190.396 207.239 167.732C207.251 167.209 207.081 166.698 206.759 166.286C206.436 165.874 205.981 165.586 205.47 165.472V161.51H183.39V165.417H183.086C182.788 165.417 182.493 165.476 182.219 165.59C181.944 165.704 181.694 165.871 181.484 166.082C181.274 166.292 181.108 166.542 180.994 166.817C180.881 167.092 180.822 167.386 180.823 167.683C180.823 167.738 180.825 167.793 180.829 167.848C182.569 192.075 176.695 213.802 163.207 233.028C162.431 234.133 162.035 235.459 162.077 236.808L164.492 311.427C164.55 313.091 165.249 314.669 166.443 315.831C167.638 316.992 169.235 317.648 170.901 317.661H220.843C222.529 317.648 224.143 316.977 225.341 315.792C226.539 314.607 227.227 313.001 227.257 311.317L228.188 238.869C228.215 236.209 227.43 233.605 225.938 231.403Z" fill="#3F3D56"/>
<path opacity="0.2" d="M200.64 150.479C200.64 152.064 200.01 153.584 198.888 154.704C197.767 155.825 196.246 156.454 194.66 156.454C193.074 156.454 191.553 155.825 190.431 154.704C189.31 153.584 188.68 152.064 188.68 150.479" fill="black"/>
<path d="M218.031 256.189H211.984C211.406 252.446 209.507 249.032 206.63 246.567C203.753 244.101 200.087 242.745 196.296 242.745C192.505 242.745 188.84 244.101 185.963 246.567C183.085 249.032 181.186 252.446 180.609 256.189H174.561C173.917 256.189 173.281 256.328 172.697 256.596C172.112 256.865 171.592 257.257 171.173 257.745C170.754 258.233 170.446 258.805 170.269 259.423C170.093 260.042 170.052 260.691 170.15 261.326L176.719 303.988H214.439L222.418 261.47C222.539 260.826 222.516 260.163 222.351 259.529C222.187 258.895 221.884 258.305 221.466 257.8C221.047 257.296 220.522 256.89 219.928 256.612C219.335 256.333 218.687 256.189 218.031 256.189Z" fill="#6C63FF"/>
<path d="M327.408 438.344H62.8516V665.064H327.408V438.344Z" fill="#E6E6E6"/>
<path d="M141.358 712.343C152.049 712.343 160.716 703.683 160.716 693.001C160.716 682.32 152.049 673.66 141.358 673.66C130.667 673.66 122 682.32 122 693.001C122 703.683 130.667 712.343 141.358 712.343Z" fill="#6C63FF"/>
<path d="M151.037 691.39H142.972V683.331H139.745V691.39H131.68V694.613H139.745V702.672H142.972V694.613H151.037V691.39Z" fill="white"/>
<path d="M243.526 712.343C254.217 712.343 262.883 703.683 262.883 693.001C262.883 682.32 254.217 673.66 243.526 673.66C232.835 673.66 224.168 682.32 224.168 693.001C224.168 703.683 232.835 712.343 243.526 712.343Z" fill="#6C63FF"/>
<path d="M253.203 694.613V691.39H233.845V694.613H253.203Z" fill="white"/>
<path d="M247.211 599.41L247.357 599.41C252.338 599.452 257.216 597.992 261.354 595.223C265.493 592.453 268.7 588.501 270.557 583.883C276.409 569.099 277.779 552.921 274.497 537.365C271.215 521.808 263.425 507.56 252.098 496.395C240.77 485.229 226.406 477.639 210.793 474.57C195.181 471.501 179.009 473.088 164.293 479.134C149.576 485.18 136.965 495.418 128.029 508.572C119.092 521.727 114.227 537.217 114.037 553.114C113.847 569.012 118.342 584.613 126.962 597.977C135.581 611.341 147.945 621.876 162.513 628.271C167.041 630.274 172.069 630.863 176.938 629.961C181.806 629.059 186.289 626.708 189.797 623.216C197.321 615.659 206.268 609.664 216.122 605.578C225.976 601.493 236.542 599.396 247.211 599.41Z" fill="white"/>
<path d="M205.546 574.878C220.339 574.878 232.331 562.897 232.331 548.117C232.331 533.337 220.339 521.355 205.546 521.355C190.754 521.355 178.762 533.337 178.762 548.117C178.762 562.897 190.754 574.878 205.546 574.878Z" fill="#F9A825"/>
</g>
<defs>
<clipPath id="clip0_5_1043">
<rect width="828" height="782" fill="white" transform="translate(0 0.77002)"/>
</clipPath>
</defs>
</svg>
